<?xml version="1.0" encoding="UTF-8"?>
<!DOCTYPE svg PUBLIC "-//W3C//DTD SVG 1.1//EN" "http://www.w3.org/Graphics/SVG/1.1/DTD/svg11.dtd">
<!-- Creator: CorelDRAW -->
<svg xmlns="http://www.w3.org/2000/svg" xml:space="preserve" width="297mm" height="420mm" style="shape-rendering:geometricPrecision; text-rendering:geometricPrecision; image-rendering:optimizeQuality; fill-rule:evenodd; clip-rule:evenodd"
viewBox="0 0 297 420"
 xmlns:xlink="http://www.w3.org/1999/xlink">
 <defs>
  <style type="text/css">
   <![CDATA[
    .str1 {stroke:#373435;stroke-width:0.5}
    .str0 {stroke:#FEB222;stroke-width:0.5}
    .str2 {stroke:#FF8400;stroke-width:0.5}
    .fil3 {fill:#373435}
    .fil1 {fill:#FEB222}
    .fil5 {fill:#FF8400}
    .fil2 {fill:#373435;fill-rule:nonzero}
    .fil0 {fill:#FEB222;fill-rule:nonzero}
    .fil4 {fill:#FF8400;fill-rule:nonzero}
   ]]>
  </style>
 </defs>
 <g id="Camada_x0020_1">
  <metadata id="CorelCorpID_0Corel-Layer"/>
  <path class="fil0 str0" d="M73.9096 53.4043c-0.1808,0.2459 -0.5331,0.3687 -1.0569,0.3687 -0.8311,0 -1.915,-0.3763 -3.2518,-1.129 -1.373,-0.768 -2.457,-1.3671 -3.2518,-1.7973 -0.7948,-0.4302 -1.3097,-0.6989 -1.5446,-0.8065 -0.1986,0.3533 -0.3928,0.649 -0.5825,0.887 -0.1897,0.2383 -0.357,0.4188 -0.5014,0.5416 -0.849,0.6913 -2.0413,1.0369 -3.577,1.0369 -1.3368,0 -2.6104,-0.4763 -3.8209,-1.4286 -1.1741,-0.9678 -1.7613,-2.0201 -1.7613,-3.1567 0,-0.1537 0.0497,-0.315 0.1489,-0.4839 0.0994,-0.1689 0.2215,-0.3188 0.3659,-0.4494 0.1445,-0.1305 0.3118,-0.2381 0.5015,-0.3226 0.1896,-0.0844 0.3838,-0.1267 0.5825,-0.1267 1.2825,0 2.7459,0.2459 4.3899,0.7374 0.3794,0.1228 0.8671,0.2919 1.4633,0.5069 0.5962,0.215 1.3007,0.4915 2.1137,0.8295 0.2891,-0.9677 0.4335,-2.3579 0.4335,-4.1706 -0.1084,0 -0.262,0.0114 -0.4606,0.0345 -0.1987,0.023 -0.3975,0.0501 -0.5962,0.0807 -0.1986,0.0307 -0.3975,0.0575 -0.5962,0.0806 -0.1986,0.023 -0.3522,0.0346 -0.4606,0.0346 -0.7769,0 -1.1653,-0.1152 -1.1653,-0.3456 0,-0.1228 0.0995,-0.2689 0.2981,-0.4378 0.1987,0.1228 0.4968,0.1843 0.8943,0.1843 0.8671,0 1.6077,-0.1306 2.222,-0.3917 0.4878,-2.4885 0.7859,-3.9171 0.8943,-4.2858 0.7227,-2.4424 1.5627,-3.6637 2.5201,-3.6637 0.8311,0 1.7343,0.6989 2.7098,2.0969 0.4518,0.6451 0.6865,0.9908 0.7046,1.0369 0.1807,0.3225 0.271,0.6988 0.271,1.129 0,0.3993 -0.3162,0.891 -0.9485,1.4747 -0.4335,0.4148 -0.9484,0.791 -1.5446,1.1291 -0.3612,0.1997 -0.8129,0.4185 -1.3549,0.6566 -0.5419,0.2382 -1.1742,0.4878 -1.8969,0.7489 -0.036,0.3994 -0.1265,1.0407 -0.2709,1.9239 -0.1445,0.8834 -0.3613,2.0163 -0.6504,3.3988 0.6322,0.338 1.2736,0.6913 1.924,1.0599 0.6503,0.3687 1.3097,0.7604 1.9782,1.1752 0.5961,0.3687 1.102,0.6682 1.5175,0.8986 0.4154,0.2304 0.7406,0.3994 0.9755,0.5069 0.7769,0.3381 1.5717,0.4839 2.3847,0.4378zm-3.5499 -13.9173c0,-0.5069 -0.1355,-1.0369 -0.4065,-1.5899 -0.3612,-0.6758 -0.7859,-1.0139 -1.2736,-1.0139 -0.9395,0 -1.7704,2.1045 -2.4931,6.3135 1.3008,-0.3993 2.2582,-0.8295 2.8725,-1.2903 0.8671,-0.6145 1.3007,-1.421 1.3007,-2.4194zm-6.4765 9.9772c-2.5291,-1.4901 -4.8146,-2.2351 -6.8559,-2.2351 -0.8671,0 -1.3007,0.2458 -1.3007,0.7373 0,0.6913 0.4878,1.4747 1.4633,2.3503 1.1021,1.0139 2.3394,1.5208 3.7125,1.5208 0.3975,0 0.7769,-0.0615 1.1381,-0.1843 0.3612,-0.1229 0.6774,-0.2882 0.9484,-0.4955 0.271,-0.2074 0.4878,-0.4569 0.6504,-0.7488 0.1626,-0.2919 0.2439,-0.6067 0.2439,-0.9447zm16.828 -4.1937c0,0.6759 -0.2349,1.4747 -0.7045,2.3964 -0.4155,0.8141 -0.9666,1.2212 -1.653,1.2212 -0.0903,0 -0.4065,-0.0922 -0.9485,-0.2765 -0.036,0.1689 -0.0813,0.3611 -0.1355,0.5761 -0.0542,0.215 -0.1173,0.4532 -0.1896,0.7143 -0.1445,0.3532 -0.2755,0.6528 -0.3929,0.8986 -0.1175,0.2458 -0.2214,0.4302 -0.3117,0.553 -0.3612,0.4915 -0.804,0.7374 -1.3278,0.7374 -1.3189,0 -1.9782,-1.1445 -1.9782,-3.4333 0,-1.4593 0.1445,-2.4425 0.4336,-2.9494 0,0.0461 0,0.0615 0,0.0461 0,-0.0307 -0.009,-0.0998 -0.0271,-0.2074 -0.0182,-0.1076 -0.0271,-0.1919 -0.0271,-0.2534 0,-0.0768 0,-0.1307 0,-0.1613 0.0181,-0.1383 0.0723,-0.2459 0.1626,-0.3226 0.036,-0.0768 0.0723,-0.192 0.1084,-0.3456 0.036,-0.1537 0.0902,-0.3611 0.1626,-0.6222 0.1265,-0.5223 0.4335,-0.7834 0.9213,-0.7834 0.4696,0 0.9574,0.1689 1.4633,0.5069 0.5238,0.338 0.8582,0.6837 1.0026,1.0369 0.1445,0.3687 0.2168,1.4823 0.2168,3.3411 0.2529,0.1689 0.4788,0.2535 0.6775,0.2535 0.6322,0 1.1021,-0.2996 1.4091,-0.8987 0.1444,-0.2304 0.3341,-0.8371 0.5691,-1.8203 0.0723,-0.2765 0.1807,-0.4148 0.3251,-0.4148 0.1626,0 0.2439,0.0692 0.2439,0.2074zm-4.0918 3.4102c0,-0.1689 -0.0182,-0.3763 -0.0542,-0.6221 -0.0361,-0.2458 -0.0903,-0.53 -0.1626,-0.8525 -0.0723,-0.3226 -0.1265,-0.6029 -0.1626,-0.8412 -0.0361,-0.238 -0.0542,-0.4416 -0.0542,-0.6105 0,-0.1076 0.0137,-0.2765 0.0408,-0.5069 0.0271,-0.2304 0.0405,-0.3994 0.0405,-0.5069 0,-0.5376 -0.2891,-0.8065 -0.8671,-0.8065 -0.3794,0 -0.7136,0.7219 -1.0027,2.1659 -0.271,1.2443 -0.4065,2.189 -0.4065,2.8342 0,1.659 0.3976,2.4885 1.1924,2.4885 0.1986,0 0.4606,-0.3071 0.7858,-0.9216 0.4336,-0.7989 0.6504,-1.4056 0.6504,-1.8204zm6.1242 1.3134c0,0.5224 -0.1265,1.0139 -0.3794,1.4747 -0.3252,0.5224 -0.7858,0.7834 -1.382,0.7834 -0.542,0 -1.0116,-0.1919 -1.4091,-0.576 -0.2891,-0.2458 -0.4336,-0.4915 -0.4336,-0.7373 0,-0.292 0.0724,-0.4533 0.2168,-0.4839 0.1265,0 0.1897,0.1228 0.1897,0.3686 0.307,0.5837 0.6414,0.8756 1.0026,0.8756 0.8311,0 1.2466,-0.5991 1.2466,-1.7972 0,-0.5224 -0.1808,-1.3289 -0.542,-2.4194 -0.1987,-0.5531 -0.3883,-1.0369 -0.5691,-1.4517 -0.0723,0.215 -0.167,0.4877 -0.2844,0.8179 -0.1176,0.3304 -0.2486,0.7183 -0.393,1.1637 -0.1808,0.5224 -0.4155,0.7834 -0.7046,0.7834 -0.036,0 -0.1084,-0.0154 -0.2168,-0.046 0.7406,-2.381 1.1111,-4.0785 1.1111,-5.0923 0,-0.4148 0.2349,-0.6221 0.7045,-0.6221 0.5238,0 0.7859,0.1458 0.7859,0.4378 0,0.046 -0.0135,0.1228 -0.0406,0.2304 -0.0271,0.1076 -0.0589,0.2228 -0.0949,0.3456 -0.0361,0.1228 -0.0677,0.2419 -0.0948,0.3571 -0.0271,0.1152 -0.0407,0.2113 -0.0407,0.2881 0,0.5836 0.2168,1.4823 0.6503,2.6959 0.4517,1.1675 0.6775,2.0353 0.6775,2.6037zm26.3937 -12.4426c-0.0181,0.2458 -0.2078,0.3686 -0.569,0.3686 -2.4389,0 -4.959,0.0922 -7.5604,0.2765 -0.1266,0.553 -0.3705,2.0584 -0.7317,4.5163 -0.2349,1.5514 -0.4199,2.9339 -0.5554,4.1475 -0.1355,1.2136 -0.2304,2.2812 -0.2846,3.2029 -0.0361,0.6145 0.0271,1.3518 0.1896,2.212 -0.0902,-0.0154 -0.1986,-0.0423 -0.3251,-0.0806 -0.1266,-0.0384 -0.2621,-0.0883 -0.4065,-0.1498 -0.3613,-0.3533 -0.542,-0.9448 -0.542,-1.7743 0,-1.2288 0.1355,-3.0645 0.4065,-5.507 0.1445,-1.2288 0.2528,-2.2966 0.3252,-3.2028 0.0723,-0.9063 0.1084,-1.6667 0.1084,-2.2812 0,-0.1689 -0.0045,-0.3226 -0.0135,-0.4608 -0.0091,-0.1383 -0.0226,-0.2689 -0.0407,-0.3917 -0.4878,-0.0461 -1.4181,-0.0231 -2.7912,0.0691 -4.0647,0.2611 -6.0971,0.7219 -6.0971,1.3825 0,0.4915 0.813,0.7373 2.4389,0.7373 1.8066,0 3.5138,-0.2073 5.1216,-0.6221 -0.3252,0.4609 -0.7046,0.7374 -1.1382,0.8295 -1.6982,0.3533 -3.1344,0.53 -4.3086,0.53 -0.9213,0 -1.6078,-0.1076 -2.0595,-0.3226 -0.5601,-0.2919 -0.84,-0.7988 -0.84,-1.5208 0,-0.6758 0.4606,-1.1214 1.382,-1.3364l3.3602 -0.3687c0.7769,-0.0767 1.82,-0.1537 3.1299,-0.2304 1.3097,-0.0767 2.8949,-0.1537 4.7557,-0.2304 1.4994,-0.0615 2.773,-0.1038 3.8208,-0.1268 1.0479,-0.0231 1.8788,-0.0345 2.4931,-0.0345 0.5059,0 0.7498,0.1228 0.7316,0.3687zm-1.4633 7.8803c-0.0723,-0.7067 -0.298,-1.0599 -0.6774,-1.0599 -0.3071,0 -0.578,0.3687 -0.813,1.106 -0.0723,0.1689 -0.1536,0.3917 -0.2439,0.6682 -0.0902,0.2765 -0.1986,0.5915 -0.3251,0.9447 -0.2892,0.9371 -0.4336,2.0969 -0.4336,3.4794 0,0.2611 0.0632,0.5069 0.1897,0.7373 0.1626,0.292 0.3704,0.4378 0.6232,0.4378 0.3434,-0.1689 0.7046,-0.7604 1.084,-1.7742 0.1444,-0.3993 0.271,-0.772 0.3794,-1.1176 0.1083,-0.3457 0.1807,-0.6566 0.2167,-0.9331l0.3252 -2.1199 -0.3252 -0.3687zm1.653 6.4518c-0.6685,0 -1.2194,-0.5607 -1.653,-1.6821 -0.4696,1.4286 -1.0749,2.1429 -1.8155,2.1429 -1.0658,0 -1.5717,-1.1214 -1.5176,-3.3641 0.0361,-0.5991 0.2621,-1.5975 0.6775,-2.9955 0.5238,-1.5975 0.9666,-2.3963 1.3278,-2.3963 0.7948,0 1.3007,0.1767 1.5175,0.5299l0.4878 0.8295 0.9484 0.2765c-0.4517,1.1215 -0.7587,2.4962 -0.9213,4.1246 -0.0361,0.3532 0,0.7219 0.1084,1.106 0.1444,0.5376 0.3704,0.8064 0.6774,0.8064 0.6143,0 1.4544,-1.8894 2.5202,-5.6683 0.1084,-0.3532 0.2349,-0.53 0.3794,-0.53 0.1444,0 0.2168,0.1153 0.2168,0.3457 0,0.5684 -0.3342,1.7281 -1.0027,3.4793 -0.7587,1.997 -1.4091,2.9955 -1.9511,2.9955zm10.6226 -6.4748c0,0.4302 -0.3162,1.4747 -0.9485,3.1337 -0.8671,2.2274 -1.5627,3.3411 -2.0865,3.3411 -0.6685,0 -1.1292,-0.5454 -1.3821,-1.636 -0.0723,-0.3072 -0.1354,-0.7872 -0.1896,-1.4402 -0.0542,-0.6528 -0.1084,-1.4938 -0.1626,-2.523 -0.0903,0.2765 -0.2574,0.7872 -0.5012,1.5322 -0.2439,0.7451 -0.5467,1.7397 -0.9079,2.984 -0.1808,0.6606 -0.4607,0.9908 -0.8401,0.9908 -0.5601,0 -0.9032,-0.3226 -1.0297,-0.9678l-0.1084 -1.7281c-0.0542,-0.6758 -0.0542,-1.2904 0,-1.8434l0.0813 -0.8525 -0.2439 -0.4378c0.0181,-0.4148 0.0632,-0.6913 0.1355,-0.8295 0.1084,-0.2459 0.3341,-0.3687 0.6774,-0.3687 0.3613,0 0.542,0.1383 0.542,0.4148 0,0.0921 -0.0632,0.2919 -0.1897,0.599 -0.1084,0.3072 -0.1626,0.5531 -0.1626,0.7374 0,0.1382 0,0.315 0,0.53 0,0.1997 -0.0089,0.4378 -0.0271,0.7143 -0.0181,0.2765 -0.0271,0.5223 -0.0271,0.7373 0,0.1998 0,0.3687 0,0.5069 0,1.106 0.1445,1.659 0.4336,1.659 0.0903,0 0.2078,-0.1997 0.3523,-0.599 0.2528,-0.8911 0.4425,-1.4747 0.569,-1.7512 0.2529,-0.6913 0.4607,-1.3288 0.6233,-1.9125 0.1626,-0.5837 0.262,-1.1367 0.2981,-1.659 0.0542,-0.6452 0.1807,-1.0293 0.3794,-1.1521 0.9213,0.046 1.382,0.2919 1.382,0.7373 0,-0.338 -0.0271,-0.3993 -0.0813,-0.1843 -0.0542,0.215 -0.1265,0.7143 -0.2168,1.4977 -0.0903,0.768 -0.1581,1.3939 -0.2031,1.8778 -0.0453,0.4839 -0.0679,0.8335 -0.0679,1.0485 0,1.6591 0.2529,2.4886 0.7588,2.4886 0.4335,0 0.9574,-0.8141 1.5717,-2.4425 0.1807,-0.4762 0.3478,-0.9485 0.5014,-1.4172 0.1534,-0.4684 0.2934,-0.9407 0.4199,-1.417 0.1265,-0.4762 0.271,-0.7143 0.4336,-0.7143 0.1444,0 0.2168,0.1153 0.2168,0.3457zm1.3549 -6.2674c0,0.5684 -0.2258,0.8525 -0.6775,0.8525 -0.2891,0 -0.5419,-0.0998 -0.7587,-0.2995 -0.2168,-0.1998 -0.3252,-0.4224 -0.3252,-0.6683 0,-0.1536 0.0949,-0.3149 0.2846,-0.4838 0.1897,-0.1689 0.3747,-0.2535 0.5554,-0.2535 0.6143,0 0.9214,0.2841 0.9214,0.8526zm2.222 6.2443c0,0.3841 -0.3162,1.4517 -0.9484,3.2029 -0.4696,1.2597 -0.7677,2.0122 -0.8942,2.2581 -0.3613,0.6758 -0.7948,1.0138 -1.3008,1.0138 -0.5601,0 -0.9755,-0.2765 -1.2465,-0.8295 -0.1986,-0.4608 -0.2981,-0.9447 -0.2981,-1.4516 0,-0.2765 0.0182,-0.6222 0.0542,-1.0369 0.0361,-0.4148 0.0903,-0.9063 0.1626,-1.4747 0.0724,-0.5684 0.1266,-1.0637 0.1626,-1.4863 0.0361,-0.4224 0.0542,-0.7718 0.0542,-1.0483 0.1265,-0.1076 0.3071,-0.1613 0.542,-0.1613 0.4696,0 0.7045,0.1076 0.7045,0.3226 -0.036,0.1228 -0.0857,0.2957 -0.1489,0.5183 -0.0634,0.2228 -0.1402,0.5031 -0.2304,0.8412 -0.3434,1.3979 -0.5149,2.5883 -0.5149,3.5715 0,1.0292 0.271,1.5438 0.8129,1.5438 0.2529,0 0.5601,-0.3841 0.9214,-1.1521 0.0181,-0.0154 0.3162,-0.7989 0.8942,-2.3503 0.0903,-0.2458 0.1897,-0.5376 0.2981,-0.8756 0.1084,-0.338 0.2258,-0.7297 0.3523,-1.1751 0.1084,-0.3687 0.2349,-0.5531 0.3794,-0.5531 0.1626,0 0.2438,0.1076 0.2438,0.3226zm7.6689 0.0231c0,0.4302 -0.3162,1.4747 -0.9485,3.1337 -0.8671,2.2274 -1.5627,3.3411 -2.0865,3.3411 -0.6685,0 -1.1292,-0.5454 -1.3821,-1.636 -0.0723,-0.3072 -0.1354,-0.7872 -0.1896,-1.4402 -0.0542,-0.6528 -0.1084,-1.4938 -0.1626,-2.523 -0.0903,0.2765 -0.2574,0.7872 -0.5012,1.5322 -0.2439,0.7451 -0.5467,1.7397 -0.9079,2.984 -0.1808,0.6606 -0.4607,0.9908 -0.8401,0.9908 -0.5601,0 -0.9032,-0.3226 -1.0297,-0.9678l-0.1084 -1.7281c-0.0542,-0.6758 -0.0542,-1.2904 0,-1.8434l0.0813 -0.8525 -0.2439 -0.4378c0.0181,-0.4148 0.0631,-0.6913 0.1355,-0.8295 0.1084,-0.2459 0.3341,-0.3687 0.6774,-0.3687 0.3613,0 0.542,0.1383 0.542,0.4148 0,0.0921 -0.0632,0.2919 -0.1897,0.599 -0.1084,0.3072 -0.1626,0.5531 -0.1626,0.7374 0,0.1382 0,0.315 0,0.53 0,0.1997 -0.0089,0.4378 -0.0271,0.7143 -0.0181,0.2765 -0.0271,0.5223 -0.0271,0.7373 0,0.1998 0,0.3687 0,0.5069 0,1.106 0.1445,1.659 0.4336,1.659 0.0903,0 0.2078,-0.1997 0.3523,-0.599 0.2528,-0.8911 0.4425,-1.4747 0.569,-1.7512 0.2529,-0.6913 0.4607,-1.3288 0.6233,-1.9125 0.1626,-0.5837 0.262,-1.1367 0.2981,-1.659 0.0542,-0.6452 0.1807,-1.0293 0.3794,-1.1521 0.9213,0.046 1.382,0.2919 1.382,0.7373 0,-0.338 -0.0271,-0.3993 -0.0813,-0.1843 -0.0542,0.215 -0.1265,0.7143 -0.2168,1.4977 -0.0903,0.768 -0.1581,1.3939 -0.2031,1.8778 -0.0453,0.4839 -0.0679,0.8335 -0.0679,1.0485 0,1.6591 0.2529,2.4886 0.7588,2.4886 0.4335,0 0.9574,-0.8141 1.5717,-2.4425 0.1807,-0.4762 0.3478,-0.9485 0.5014,-1.4172 0.1534,-0.4684 0.2934,-0.9407 0.4199,-1.417 0.1265,-0.4762 0.271,-0.7143 0.4336,-0.7143 0.1444,0 0.2168,0.1153 0.2168,0.3457zm6.6933 -0.1383c0,0.6759 -0.235,1.4747 -0.7046,2.3964 -0.4154,0.8141 -0.9666,1.2212 -1.653,1.2212 -0.0903,0 -0.4065,-0.0922 -0.9484,-0.2765 -0.0361,0.1689 -0.0813,0.3611 -0.1355,0.5761 -0.0542,0.215 -0.1174,0.4532 -0.1897,0.7143 -0.1445,0.3532 -0.2755,0.6528 -0.3928,0.8986 -0.1176,0.2458 -0.2215,0.4302 -0.3118,0.553 -0.3612,0.4915 -0.804,0.7374 -1.3278,0.7374 -1.3189,0 -1.9782,-1.1445 -1.9782,-3.4333 0,-1.4593 0.1445,-2.4425 0.4336,-2.9494 0,0.0461 0,0.0615 0,0.0461 0,-0.0307 -0.009,-0.0998 -0.0271,-0.2074 -0.0181,-0.1076 -0.0271,-0.1919 -0.0271,-0.2534 0,-0.0768 0,-0.1307 0,-0.1613 0.0181,-0.1383 0.0723,-0.2459 0.1626,-0.3226 0.0361,-0.0768 0.0723,-0.192 0.1084,-0.3456 0.036,-0.1537 0.0902,-0.3611 0.1626,-0.6222 0.1265,-0.5223 0.4336,-0.7834 0.9213,-0.7834 0.4697,0 0.9574,0.1689 1.4633,0.5069 0.5239,0.338 0.8582,0.6837 1.0027,1.0369 0.1444,0.3687 0.2168,1.4823 0.2168,3.3411 0.2528,0.1689 0.4788,0.2535 0.6774,0.2535 0.6322,0 1.1021,-0.2996 1.4091,-0.8987 0.1445,-0.2304 0.3342,-0.8371 0.5691,-1.8203 0.0723,-0.2765 0.1807,-0.4148 0.3252,-0.4148 0.1626,0 0.2439,0.0692 0.2439,0.2074zm-4.0919 3.4102c0,-0.1689 -0.0181,-0.3763 -0.0542,-0.6221 -0.036,-0.2458 -0.0902,-0.53 -0.1626,-0.8525 -0.0723,-0.3226 -0.1265,-0.6029 -0.1626,-0.8412 -0.036,-0.238 -0.0542,-0.4416 -0.0542,-0.6105 0,-0.1076 0.0137,-0.2765 0.0408,-0.5069 0.0271,-0.2304 0.0405,-0.3994 0.0405,-0.5069 0,-0.5376 -0.2891,-0.8065 -0.8671,-0.8065 -0.3794,0 -0.7135,0.7219 -1.0027,2.1659 -0.2709,1.2443 -0.4064,2.189 -0.4064,2.8342 0,1.659 0.3975,2.4885 1.1923,2.4885 0.1986,0 0.4607,-0.3071 0.7858,-0.9216 0.4336,-0.7989 0.6504,-1.4056 0.6504,-1.8204zm6.1242 1.3134c0,0.5224 -0.1265,1.0139 -0.3794,1.4747 -0.3251,0.5224 -0.7858,0.7834 -1.382,0.7834 -0.5419,0 -1.0116,-0.1919 -1.4091,-0.576 -0.2891,-0.2458 -0.4336,-0.4915 -0.4336,-0.7373 0,-0.292 0.0724,-0.4533 0.2168,-0.4839 0.1266,0 0.1897,0.1228 0.1897,0.3686 0.3071,0.5837 0.6414,0.8756 1.0027,0.8756 0.831,0 1.2465,-0.5991 1.2465,-1.7972 0,-0.5224 -0.1807,-1.3289 -0.542,-2.4194 -0.1986,-0.5531 -0.3883,-1.0369 -0.569,-1.4517 -0.0724,0.215 -0.1671,0.4877 -0.2845,0.8179 -0.1175,0.3304 -0.2486,0.7183 -0.393,1.1637 -0.1807,0.5224 -0.4154,0.7834 -0.7046,0.7834 -0.036,0 -0.1084,-0.0154 -0.2167,-0.046 0.7406,-2.381 1.111,-4.0785 1.111,-5.0923 0,-0.4148 0.2349,-0.6221 0.7045,-0.6221 0.5239,0 0.7859,0.1458 0.7859,0.4378 0,0.046 -0.0135,0.1228 -0.0406,0.2304 -0.027,0.1076 -0.0588,0.2228 -0.0949,0.3456 -0.0361,0.1228 -0.0676,0.2419 -0.0947,0.3571 -0.0271,0.1152 -0.0408,0.2113 -0.0408,0.2881 0,0.5836 0.2168,1.4823 0.6504,2.6959 0.4517,1.1675 0.6774,2.0353 0.6774,2.6037z"/>
  <path class="fil1" d="M40.0428 47.9782c-0.0536,3.7845 0.779,1.9986 0.938,3.535 -1.5805,-0.2788 -1.0595,-1.5831 -3.3162,-1.5109 -0.6876,0.9813 -0.1525,1.1643 -0.3159,2.205 -1.4667,0.0094 -3.1325,-2.0877 -0.9573,-3.0689 0.8588,-0.3874 1.2344,-0.2088 1.1515,-1.0966 -1.0003,-0.0223 -1.4032,0.1877 -2.2804,0.4792l-1.3002 0.1395c-0.1949,-0.2568 -0.3248,-0.2828 -0.5936,-0.4792 -0.5969,-0.4357 -0.0203,-0.2824 -0.9643,-0.3784l0.039 0.9053 0.6853 0.293c0.3682,0.1407 0.5626,0.1018 0.9256,0.233 -0.0028,0.5243 -0.2435,0.6778 -0.197,1.2856 0.0221,0.2875 0.6366,1.4511 -0.6975,1.2031 -0.5359,-0.0994 -0.3177,-0.1757 -1.1067,-0.2069 -0.3442,0.411 -1.0488,0.6356 -1.022,1.3176 0.3053,0.1355 -0.1971,0.0182 0.4024,0.1224 0.4856,0.0846 1.0374,0.0658 1.4843,-0.0721 1.5179,-0.4676 0.4673,-1.0375 3.4978,-0.0771 2.3438,0.7424 1.8043,0.5641 2.3018,-0.7616 1.0362,0.0033 1.6823,0.365 2.5789,0.5686l2.5339 0.582c3.0458,0.3522 3.8298,-1.0245 4.9358,-1.2263 0.4245,0.301 0.4187,0.1618 0.6196,0.6428 0.2436,0.3128 0.1255,0.2082 0.7875,0.1977 0.104,-1.0281 -0.7737,-1.366 -0.4085,-2.2503 0.2584,-0.6262 0.6396,-0.4389 0.7257,-2.2519 0.0522,-1.0956 -0.524,-2.6917 -1.7901,-3.3648 -1.667,-0.8862 -3.8656,0.2857 -3.7711,3.036 0.0727,2.124 2.7867,3.1091 2.8448,3.42 -0.1349,0.5425 -1.3441,0.9029 -2.2013,0.9961 -0.0174,-1.1872 0.1235,-1.8387 -1.903,-1.657 -0.1447,0.6161 0.2421,1.5388 -1.0464,1.0607 -0.6056,-0.2247 -0.9521,-0.7321 -1.2755,-1.2201 -0.4039,-0.6094 -1.1492,-3.6573 0.4872,-3.1947 0.3368,0.5881 -0.0806,1.3076 0.9157,1.4826 2.1458,0.3773 1.4233,-2.7058 1.2619,-3.1116 -0.0004,-0.0013 -1.3099,-1.9788 0.4008,-1.7253 0.8196,0.1215 0.0816,0.4642 2.0811,0.3542 0.2616,-0.4365 0.4766,-0.8464 0.3225,-1.4625 -0.6628,0.0428 -0.4106,0.1772 -1.0754,0.4066 -0.8212,-0.2383 -0.4768,-0.5917 -1.5814,-0.5577 -0.617,0.019 -0.4809,0.1271 -1.0958,0.0436 -0.0437,-0.0058 -0.0808,-0.0186 -0.1223,-0.0265l-0.3462 -0.093c-0.3035,-0.0526 -0.2402,-0.0427 -0.6061,-0.0476 -0.7136,0.3656 -0.119,0.3788 -1.2288,1.1123l-0.463 0.4316c-0.0247,0.0279 -0.1022,0.1087 -0.1249,0.1367 -0.1624,0.2001 -0.3981,0.3439 -0.0355,0.5783 0.8045,0.6098 0.8516,-0.7193 2.272,-0.0319 0.7482,0.3622 1.0188,1.0807 0.9664,1.7003 -0.7404,-0.0652 -1.644,-0.6178 -2.4305,0.0624 -0.3174,0.2745 -0.8403,1.0552 -0.9026,1.3417zm8.626 1.7846c0.2879,-0.4867 0.5254,-1.0334 0.5254,-1.6047 0,-1.2797 -1.427,-2.8965 -2.5129,-1.53 -0.8969,1.1287 -0.2967,2.2351 0.7768,2.9616 0.1826,0.1235 1.0315,0.442 1.2107,0.1731z"/>
  <path class="fil1" d="M154.255 47.9278c0.0536,3.8455 -0.7787,2.0307 -0.9378,3.5922 1.5803,-0.2836 1.0593,-1.6089 3.316,-1.5352 0.6876,0.9967 0.1525,1.1828 0.3159,2.2403 1.4667,0.0098 3.1325,-2.1214 0.9573,-3.1184 -0.8588,-0.3938 -1.2344,-0.2123 -1.1515,-1.1145 1.0003,-0.0224 1.4032,0.1907 2.2804,0.4873l1.3002 0.1415c0.1949,-0.261 0.3248,-0.2873 0.5936,-0.4867 0.5969,-0.443 0.0203,-0.2872 0.9643,-0.3846l-0.0387 0.9198 -0.6856 0.2977c-0.3682,0.143 -0.5626,0.1035 -0.9256,0.2369 0.0028,0.5327 0.2437,0.6887 0.197,1.3062 -0.0221,0.2923 -0.6366,1.4747 0.6975,1.2227 0.5359,-0.1011 0.3177,-0.1783 1.107,-0.2103 0.3441,0.4177 1.0485,0.6459 1.0217,1.339 -0.3053,0.1377 0.1971,0.0186 -0.4024,0.1244 -0.4856,0.0858 -1.0374,0.0667 -1.4843,-0.0733 -1.5179,-0.4753 -0.4673,-1.0544 -3.4978,-0.0786 -2.3438,0.7548 -1.8042,0.5734 -2.3018,-0.7738 -1.0362,0.0035 -1.6823,0.3711 -2.5789,0.5779l-2.5339 0.5914c-3.0458,0.3578 -3.8298,-1.041 -4.9358,-1.2462 -0.4245,0.3058 -0.4187,0.1645 -0.6195,0.6533 -0.2437,0.3178 -0.1256,0.2116 -0.7876,0.201 -0.104,-1.0448 0.7739,-1.3883 0.4088,-2.2869 -0.2585,-0.6362 -0.6399,-0.4458 -0.726,-2.2881 -0.0519,-1.1137 0.524,-2.7354 1.7901,-3.4195 1.667,-0.9006 3.8656,0.2904 3.7714,3.0852 -0.073,2.1584 -2.787,3.1595 -2.845,3.4752 0.1348,0.5514 1.344,0.9175 2.2012,1.0124 0.0174,-1.2063 -0.1234,-1.8682 1.903,-1.684 0.1447,0.6261 -0.2421,1.5638 1.0464,1.0779 0.6056,-0.2284 0.9521,-0.7437 1.2755,-1.2396 0.4039,-0.6195 1.1492,-3.7166 -0.4872,-3.2464 -0.3366,0.5974 0.0809,1.3285 -0.9155,1.5064 -2.146,0.3834 -1.4235,-2.7495 -1.2621,-3.162 0.0005,-0.0014 1.3099,-2.0107 -0.4008,-1.753 -0.8196,0.1233 -0.0815,0.4717 -2.0811,0.3598 -0.2615,-0.4437 -0.4766,-0.8599 -0.3225,-1.4861 0.6629,0.0433 0.4106,0.18 1.0754,0.4131 0.8212,-0.2421 0.4768,-0.6013 1.5816,-0.5666 0.6168,0.0193 0.4807,0.1289 1.0956,0.0442 0.0437,-0.006 0.0808,-0.0189 0.1223,-0.0268l0.3462 -0.0945c0.3035,-0.0536 0.2402,-0.0435 0.6061,-0.0485 0.7136,0.3716 0.119,0.385 1.229,1.13l0.4628 0.4386c0.025,0.0288 0.1022,0.1108 0.1249,0.1392 0.1624,0.2034 0.3981,0.3495 0.0355,0.5876 -0.8045,0.6199 -0.8516,-0.731 -2.272,-0.0323 -0.7482,0.3679 -1.0187,1.0981 -0.9664,1.7278 0.7404,-0.0665 1.6442,-0.6276 2.4305,0.0634 0.3174,0.2789 0.8403,1.0724 0.9026,1.3635zm-8.43 1.9201c-0.2879,-0.5356 -0.5254,-1.1374 -0.5254,-1.7662 0,-1.4085 1.4269,-3.1881 2.5129,-1.684 0.8968,1.2422 0.2967,2.4601 -0.7768,3.2597 -0.1826,0.1359 -1.0315,0.4865 -1.2107,0.1905z"/>
  <path class="fil2 str1" d="M74.3985 76.5386c-0.1808,0.2459 -0.5331,0.3687 -1.0569,0.3687 -0.8311,0 -1.915,-0.3763 -3.2518,-1.129 -1.373,-0.768 -2.457,-1.3671 -3.2518,-1.7973 -0.7948,-0.4302 -1.3097,-0.6989 -1.5446,-0.8065 -0.1986,0.3533 -0.3928,0.649 -0.5825,0.887 -0.1897,0.2383 -0.357,0.4188 -0.5014,0.5416 -0.849,0.6913 -2.0413,1.0369 -3.577,1.0369 -1.3368,0 -2.6104,-0.4763 -3.8209,-1.4286 -1.1741,-0.9678 -1.7613,-2.0201 -1.7613,-3.1567 0,-0.1537 0.0497,-0.315 0.1489,-0.4839 0.0994,-0.1689 0.2215,-0.3188 0.3659,-0.4494 0.1445,-0.1305 0.3118,-0.2381 0.5015,-0.3226 0.1896,-0.0844 0.3838,-0.1267 0.5825,-0.1267 1.2825,0 2.7459,0.2459 4.3899,0.7374 0.3794,0.1228 0.8671,0.2919 1.4633,0.5069 0.5962,0.215 1.3007,0.4915 2.1137,0.8295 0.2891,-0.9677 0.4335,-2.3579 0.4335,-4.1706 -0.1084,0 -0.262,0.0114 -0.4606,0.0345 -0.1987,0.023 -0.3975,0.0501 -0.5962,0.0807 -0.1986,0.0307 -0.3975,0.0575 -0.5962,0.0806 -0.1986,0.023 -0.3522,0.0346 -0.4606,0.0346 -0.7769,0 -1.1653,-0.1152 -1.1653,-0.3456 0,-0.1228 0.0995,-0.2689 0.2981,-0.4378 0.1987,0.1228 0.4968,0.1843 0.8943,0.1843 0.8671,0 1.6077,-0.1306 2.222,-0.3917 0.4878,-2.4885 0.7859,-3.9171 0.8943,-4.2858 0.7227,-2.4424 1.5627,-3.6637 2.5201,-3.6637 0.8311,0 1.7343,0.6989 2.7098,2.0969 0.4518,0.6451 0.6865,0.9908 0.7046,1.0369 0.1807,0.3225 0.271,0.6988 0.271,1.129 0,0.3993 -0.3162,0.891 -0.9485,1.4747 -0.4335,0.4148 -0.9484,0.791 -1.5446,1.1291 -0.3612,0.1997 -0.8129,0.4185 -1.3549,0.6566 -0.5419,0.2382 -1.1742,0.4878 -1.8969,0.7489 -0.036,0.3994 -0.1265,1.0407 -0.2709,1.9239 -0.1445,0.8834 -0.3613,2.0163 -0.6504,3.3988 0.6322,0.338 1.2736,0.6913 1.924,1.0599 0.6503,0.3687 1.3097,0.7604 1.9782,1.1752 0.5961,0.3687 1.102,0.6682 1.5175,0.8986 0.4154,0.2304 0.7406,0.3994 0.9755,0.5069 0.7769,0.3381 1.5717,0.4839 2.3847,0.4378zm-3.5499 -13.9173c0,-0.5069 -0.1355,-1.0369 -0.4065,-1.5899 -0.3612,-0.6758 -0.7859,-1.0139 -1.2736,-1.0139 -0.9395,0 -1.7704,2.1045 -2.4931,6.3135 1.3008,-0.3993 2.2582,-0.8295 2.8725,-1.2903 0.8671,-0.6145 1.3007,-1.421 1.3007,-2.4194zm-6.4765 9.9772c-2.5291,-1.4901 -4.8146,-2.2351 -6.8559,-2.2351 -0.8671,0 -1.3007,0.2458 -1.3007,0.7373 0,0.6913 0.4878,1.4747 1.4633,2.3503 1.1021,1.0139 2.3394,1.5208 3.7125,1.5208 0.3975,0 0.7769,-0.0615 1.1381,-0.1843 0.3612,-0.1229 0.6774,-0.2882 0.9484,-0.4955 0.271,-0.2074 0.4878,-0.4569 0.6504,-0.7488 0.1626,-0.2919 0.2439,-0.6067 0.2439,-0.9447zm16.828 -4.1937c0,0.6759 -0.2349,1.4747 -0.7045,2.3964 -0.4155,0.8141 -0.9666,1.2212 -1.653,1.2212 -0.0903,0 -0.4065,-0.0922 -0.9485,-0.2765 -0.036,0.1689 -0.0813,0.3611 -0.1355,0.5761 -0.0542,0.215 -0.1173,0.4532 -0.1896,0.7143 -0.1445,0.3532 -0.2755,0.6528 -0.3929,0.8986 -0.1175,0.2458 -0.2214,0.4302 -0.3117,0.553 -0.3612,0.4915 -0.804,0.7374 -1.3278,0.7374 -1.3189,0 -1.9782,-1.1445 -1.9782,-3.4333 0,-1.4593 0.1445,-2.4425 0.4336,-2.9494 0,0.0461 0,0.0615 0,0.0461 0,-0.0307 -0.009,-0.0998 -0.0271,-0.2074 -0.0182,-0.1076 -0.0271,-0.1919 -0.0271,-0.2534 0,-0.0768 0,-0.1307 0,-0.1613 0.0181,-0.1383 0.0723,-0.2459 0.1626,-0.3226 0.036,-0.0768 0.0723,-0.192 0.1084,-0.3456 0.036,-0.1537 0.0902,-0.3611 0.1626,-0.6222 0.1265,-0.5223 0.4335,-0.7834 0.9213,-0.7834 0.4696,0 0.9574,0.1689 1.4633,0.5069 0.5238,0.338 0.8582,0.6837 1.0026,1.0369 0.1445,0.3687 0.2168,1.4823 0.2168,3.3411 0.2529,0.1689 0.4788,0.2535 0.6775,0.2535 0.6322,0 1.1021,-0.2996 1.4091,-0.8987 0.1444,-0.2304 0.3341,-0.8371 0.5691,-1.8203 0.0723,-0.2765 0.1807,-0.4148 0.3251,-0.4148 0.1626,0 0.2439,0.0692 0.2439,0.2074zm-4.0918 3.4102c0,-0.1689 -0.0182,-0.3763 -0.0542,-0.6221 -0.0361,-0.2458 -0.0903,-0.53 -0.1626,-0.8525 -0.0723,-0.3226 -0.1265,-0.6029 -0.1626,-0.8412 -0.0361,-0.238 -0.0542,-0.4416 -0.0542,-0.6105 0,-0.1076 0.0137,-0.2765 0.0408,-0.5069 0.0271,-0.2304 0.0405,-0.3994 0.0405,-0.5069 0,-0.5376 -0.2891,-0.8065 -0.8671,-0.8065 -0.3794,0 -0.7136,0.7219 -1.0027,2.1659 -0.271,1.2443 -0.4065,2.189 -0.4065,2.8342 0,1.659 0.3976,2.4885 1.1924,2.4885 0.1986,0 0.4606,-0.3071 0.7858,-0.9216 0.4336,-0.7989 0.6504,-1.4056 0.6504,-1.8204zm6.1242 1.3134c0,0.5224 -0.1265,1.0139 -0.3794,1.4747 -0.3252,0.5224 -0.7858,0.7834 -1.382,0.7834 -0.542,0 -1.0116,-0.1919 -1.4091,-0.576 -0.2891,-0.2458 -0.4336,-0.4915 -0.4336,-0.7373 0,-0.292 0.0724,-0.4533 0.2168,-0.4839 0.1265,0 0.1897,0.1228 0.1897,0.3686 0.307,0.5837 0.6414,0.8756 1.0026,0.8756 0.8311,0 1.2466,-0.5991 1.2466,-1.7972 0,-0.5224 -0.1808,-1.3289 -0.542,-2.4194 -0.1987,-0.5531 -0.3883,-1.0369 -0.5691,-1.4517 -0.0723,0.215 -0.167,0.4877 -0.2844,0.8179 -0.1176,0.3304 -0.2486,0.7183 -0.393,1.1637 -0.1808,0.5224 -0.4155,0.7834 -0.7046,0.7834 -0.036,0 -0.1084,-0.0154 -0.2168,-0.046 0.7406,-2.381 1.1111,-4.0785 1.1111,-5.0923 0,-0.4148 0.2349,-0.6221 0.7045,-0.6221 0.5238,0 0.7859,0.1458 0.7859,0.4378 0,0.046 -0.0135,0.1228 -0.0406,0.2304 -0.0271,0.1076 -0.0589,0.2228 -0.0949,0.3456 -0.0361,0.1228 -0.0677,0.2419 -0.0948,0.3571 -0.0271,0.1152 -0.0407,0.2113 -0.0407,0.2881 0,0.5836 0.2168,1.4823 0.6503,2.6959 0.4517,1.1675 0.6775,2.0353 0.6775,2.6037zm26.3937 -12.4426c-0.0181,0.2458 -0.2078,0.3686 -0.569,0.3686 -2.4389,0 -4.959,0.0922 -7.5604,0.2765 -0.1266,0.553 -0.3705,2.0584 -0.7317,4.5163 -0.2349,1.5514 -0.4199,2.9339 -0.5554,4.1475 -0.1355,1.2136 -0.2304,2.2812 -0.2846,3.2029 -0.0361,0.6145 0.0271,1.3518 0.1896,2.212 -0.0902,-0.0154 -0.1986,-0.0423 -0.3251,-0.0806 -0.1266,-0.0384 -0.2621,-0.0883 -0.4065,-0.1498 -0.3613,-0.3533 -0.542,-0.9448 -0.542,-1.7743 0,-1.2288 0.1355,-3.0645 0.4065,-5.507 0.1445,-1.2288 0.2528,-2.2966 0.3252,-3.2028 0.0723,-0.9063 0.1084,-1.6667 0.1084,-2.2812 0,-0.1689 -0.0045,-0.3226 -0.0135,-0.4608 -0.0091,-0.1383 -0.0226,-0.2689 -0.0407,-0.3917 -0.4878,-0.0461 -1.4181,-0.0231 -2.7912,0.0691 -4.0647,0.2611 -6.0971,0.7219 -6.0971,1.3825 0,0.4915 0.813,0.7373 2.4389,0.7373 1.8066,0 3.5138,-0.2073 5.1216,-0.6221 -0.3252,0.4609 -0.7046,0.7374 -1.1382,0.8295 -1.6982,0.3533 -3.1344,0.53 -4.3086,0.53 -0.9213,0 -1.6078,-0.1076 -2.0595,-0.3226 -0.5601,-0.2919 -0.84,-0.7988 -0.84,-1.5208 0,-0.6758 0.4606,-1.1214 1.382,-1.3364l3.3602 -0.3687c0.7769,-0.0767 1.82,-0.1537 3.1299,-0.2304 1.3097,-0.0767 2.8949,-0.1537 4.7557,-0.2304 1.4994,-0.0615 2.773,-0.1038 3.8208,-0.1268 1.0479,-0.0231 1.8788,-0.0345 2.4931,-0.0345 0.5059,0 0.7498,0.1228 0.7316,0.3687zm-1.4633 7.8803c-0.0723,-0.7067 -0.298,-1.0599 -0.6774,-1.0599 -0.3071,0 -0.578,0.3687 -0.813,1.106 -0.0723,0.1689 -0.1536,0.3917 -0.2439,0.6682 -0.0902,0.2765 -0.1986,0.5915 -0.3251,0.9447 -0.2892,0.9371 -0.4336,2.0969 -0.4336,3.4794 0,0.2611 0.0632,0.5069 0.1897,0.7373 0.1626,0.292 0.3704,0.4378 0.6232,0.4378 0.3434,-0.1689 0.7046,-0.7604 1.084,-1.7742 0.1444,-0.3993 0.271,-0.772 0.3794,-1.1176 0.1083,-0.3457 0.1807,-0.6566 0.2167,-0.9331l0.3252 -2.1199 -0.3252 -0.3687zm1.653 6.4518c-0.6685,0 -1.2194,-0.5607 -1.653,-1.6821 -0.4696,1.4286 -1.0749,2.1429 -1.8155,2.1429 -1.0658,0 -1.5717,-1.1214 -1.5176,-3.3641 0.0361,-0.5991 0.2621,-1.5975 0.6775,-2.9955 0.5238,-1.5975 0.9666,-2.3963 1.3278,-2.3963 0.7948,0 1.3007,0.1767 1.5175,0.5299l0.4878 0.8295 0.9484 0.2765c-0.4517,1.1215 -0.7587,2.4962 -0.9213,4.1246 -0.0361,0.3532 0,0.7219 0.1084,1.106 0.1444,0.5376 0.3704,0.8064 0.6774,0.8064 0.6143,0 1.4544,-1.8894 2.5202,-5.6683 0.1084,-0.3532 0.2349,-0.53 0.3794,-0.53 0.1444,0 0.2168,0.1153 0.2168,0.3457 0,0.5684 -0.3342,1.7281 -1.0027,3.4793 -0.7587,1.997 -1.4091,2.9955 -1.9511,2.9955zm10.6226 -6.4748c0,0.4302 -0.3162,1.4747 -0.9485,3.1337 -0.8671,2.2274 -1.5627,3.3411 -2.0865,3.3411 -0.6685,0 -1.1292,-0.5454 -1.3821,-1.636 -0.0723,-0.3072 -0.1354,-0.7872 -0.1896,-1.4402 -0.0542,-0.6528 -0.1084,-1.4938 -0.1626,-2.523 -0.0903,0.2765 -0.2574,0.7872 -0.5012,1.5322 -0.2439,0.7451 -0.5467,1.7397 -0.9079,2.984 -0.1808,0.6606 -0.4607,0.9908 -0.8401,0.9908 -0.5601,0 -0.9032,-0.3226 -1.0297,-0.9678l-0.1084 -1.7281c-0.0542,-0.6758 -0.0542,-1.2904 0,-1.8434l0.0813 -0.8525 -0.2439 -0.4378c0.0181,-0.4148 0.0632,-0.6913 0.1355,-0.8295 0.1084,-0.2459 0.3341,-0.3687 0.6774,-0.3687 0.3613,0 0.542,0.1383 0.542,0.4148 0,0.0921 -0.0632,0.2919 -0.1897,0.599 -0.1084,0.3072 -0.1626,0.5531 -0.1626,0.7374 0,0.1382 0,0.315 0,0.53 0,0.1997 -0.0089,0.4378 -0.0271,0.7143 -0.0181,0.2765 -0.0271,0.5223 -0.0271,0.7373 0,0.1998 0,0.3687 0,0.5069 0,1.106 0.1445,1.659 0.4336,1.659 0.0903,0 0.2078,-0.1997 0.3523,-0.599 0.2528,-0.8911 0.4425,-1.4747 0.569,-1.7512 0.2529,-0.6913 0.4607,-1.3288 0.6233,-1.9125 0.1626,-0.5837 0.262,-1.1367 0.2981,-1.659 0.0542,-0.6452 0.1807,-1.0293 0.3794,-1.1521 0.9213,0.046 1.382,0.2919 1.382,0.7373 0,-0.338 -0.0271,-0.3993 -0.0813,-0.1843 -0.0542,0.215 -0.1265,0.7143 -0.2168,1.4977 -0.0903,0.768 -0.1581,1.3939 -0.2031,1.8778 -0.0453,0.4839 -0.0679,0.8335 -0.0679,1.0485 0,1.6591 0.2529,2.4886 0.7588,2.4886 0.4335,0 0.9574,-0.8141 1.5717,-2.4425 0.1807,-0.4762 0.3478,-0.9485 0.5014,-1.4172 0.1534,-0.4684 0.2934,-0.9407 0.4199,-1.417 0.1265,-0.4762 0.271,-0.7143 0.4336,-0.7143 0.1444,0 0.2168,0.1153 0.2168,0.3457zm1.3549 -6.2674c0,0.5684 -0.2258,0.8525 -0.6775,0.8525 -0.2891,0 -0.5419,-0.0998 -0.7587,-0.2995 -0.2168,-0.1998 -0.3252,-0.4224 -0.3252,-0.6683 0,-0.1536 0.0949,-0.3149 0.2846,-0.4838 0.1897,-0.1689 0.3747,-0.2535 0.5554,-0.2535 0.6143,0 0.9214,0.2841 0.9214,0.8526zm2.222 6.2443c0,0.3841 -0.3162,1.4517 -0.9484,3.2029 -0.4696,1.2597 -0.7677,2.0122 -0.8942,2.2581 -0.3613,0.6758 -0.7948,1.0138 -1.3008,1.0138 -0.5601,0 -0.9755,-0.2765 -1.2465,-0.8295 -0.1986,-0.4608 -0.2981,-0.9447 -0.2981,-1.4516 0,-0.2765 0.0182,-0.6222 0.0542,-1.0369 0.0361,-0.4148 0.0903,-0.9063 0.1626,-1.4747 0.0724,-0.5684 0.1266,-1.0637 0.1626,-1.4863 0.0361,-0.4224 0.0542,-0.7718 0.0542,-1.0483 0.1265,-0.1076 0.3071,-0.1613 0.542,-0.1613 0.4696,0 0.7045,0.1076 0.7045,0.3226 -0.036,0.1228 -0.0857,0.2957 -0.1489,0.5183 -0.0634,0.2228 -0.1402,0.5031 -0.2304,0.8412 -0.3434,1.3979 -0.5149,2.5883 -0.5149,3.5715 0,1.0292 0.271,1.5438 0.8129,1.5438 0.2529,0 0.5601,-0.3841 0.9214,-1.1521 0.0181,-0.0154 0.3162,-0.7989 0.8942,-2.3503 0.0903,-0.2458 0.1897,-0.5376 0.2981,-0.8756 0.1084,-0.338 0.2258,-0.7297 0.3523,-1.1751 0.1084,-0.3687 0.2349,-0.5531 0.3794,-0.5531 0.1626,0 0.2438,0.1076 0.2438,0.3226zm7.6689 0.0231c0,0.4302 -0.3162,1.4747 -0.9485,3.1337 -0.8671,2.2274 -1.5627,3.3411 -2.0865,3.3411 -0.6685,0 -1.1292,-0.5454 -1.3821,-1.636 -0.0723,-0.3072 -0.1354,-0.7872 -0.1896,-1.4402 -0.0542,-0.6528 -0.1084,-1.4938 -0.1626,-2.523 -0.0903,0.2765 -0.2574,0.7872 -0.5012,1.5322 -0.2439,0.7451 -0.5467,1.7397 -0.9079,2.984 -0.1808,0.6606 -0.4607,0.9908 -0.8401,0.9908 -0.5601,0 -0.9032,-0.3226 -1.0297,-0.9678l-0.1084 -1.7281c-0.0542,-0.6758 -0.0542,-1.2904 0,-1.8434l0.0813 -0.8525 -0.2439 -0.4378c0.0181,-0.4148 0.0631,-0.6913 0.1355,-0.8295 0.1084,-0.2459 0.3341,-0.3687 0.6774,-0.3687 0.3613,0 0.542,0.1383 0.542,0.4148 0,0.0921 -0.0632,0.2919 -0.1897,0.599 -0.1084,0.3072 -0.1626,0.5531 -0.1626,0.7374 0,0.1382 0,0.315 0,0.53 0,0.1997 -0.0089,0.4378 -0.0271,0.7143 -0.0181,0.2765 -0.0271,0.5223 -0.0271,0.7373 0,0.1998 0,0.3687 0,0.5069 0,1.106 0.1445,1.659 0.4336,1.659 0.0903,0 0.2078,-0.1997 0.3523,-0.599 0.2528,-0.8911 0.4425,-1.4747 0.569,-1.7512 0.2529,-0.6913 0.4607,-1.3288 0.6233,-1.9125 0.1626,-0.5837 0.262,-1.1367 0.2981,-1.659 0.0542,-0.6452 0.1807,-1.0293 0.3794,-1.1521 0.9213,0.046 1.382,0.2919 1.382,0.7373 0,-0.338 -0.0271,-0.3993 -0.0813,-0.1843 -0.0542,0.215 -0.1265,0.7143 -0.2168,1.4977 -0.0903,0.768 -0.1581,1.3939 -0.2031,1.8778 -0.0453,0.4839 -0.0679,0.8335 -0.0679,1.0485 0,1.6591 0.2529,2.4886 0.7588,2.4886 0.4335,0 0.9574,-0.8141 1.5717,-2.4425 0.1807,-0.4762 0.3478,-0.9485 0.5014,-1.4172 0.1534,-0.4684 0.2934,-0.9407 0.4199,-1.417 0.1265,-0.4762 0.271,-0.7143 0.4336,-0.7143 0.1444,0 0.2168,0.1153 0.2168,0.3457zm6.6933 -0.1383c0,0.6759 -0.235,1.4747 -0.7046,2.3964 -0.4154,0.8141 -0.9666,1.2212 -1.653,1.2212 -0.0903,0 -0.4065,-0.0922 -0.9484,-0.2765 -0.0361,0.1689 -0.0813,0.3611 -0.1355,0.5761 -0.0542,0.215 -0.1174,0.4532 -0.1897,0.7143 -0.1445,0.3532 -0.2755,0.6528 -0.3928,0.8986 -0.1176,0.2458 -0.2215,0.4302 -0.3118,0.553 -0.3612,0.4915 -0.804,0.7374 -1.3278,0.7374 -1.3189,0 -1.9782,-1.1445 -1.9782,-3.4333 0,-1.4593 0.1445,-2.4425 0.4336,-2.9494 0,0.0461 0,0.0615 0,0.0461 0,-0.0307 -0.009,-0.0998 -0.0271,-0.2074 -0.0181,-0.1076 -0.0271,-0.1919 -0.0271,-0.2534 0,-0.0768 0,-0.1307 0,-0.1613 0.0181,-0.1383 0.0723,-0.2459 0.1626,-0.3226 0.0361,-0.0768 0.0723,-0.192 0.1084,-0.3456 0.036,-0.1537 0.0902,-0.3611 0.1626,-0.6222 0.1265,-0.5223 0.4336,-0.7834 0.9213,-0.7834 0.4697,0 0.9574,0.1689 1.4633,0.5069 0.5239,0.338 0.8582,0.6837 1.0027,1.0369 0.1444,0.3687 0.2168,1.4823 0.2168,3.3411 0.2528,0.1689 0.4788,0.2535 0.6774,0.2535 0.6322,0 1.1021,-0.2996 1.4091,-0.8987 0.1445,-0.2304 0.3342,-0.8371 0.5691,-1.8203 0.0723,-0.2765 0.1807,-0.4148 0.3252,-0.4148 0.1626,0 0.2439,0.0692 0.2439,0.2074zm-4.0919 3.4102c0,-0.1689 -0.0181,-0.3763 -0.0542,-0.6221 -0.036,-0.2458 -0.0902,-0.53 -0.1626,-0.8525 -0.0723,-0.3226 -0.1265,-0.6029 -0.1626,-0.8412 -0.036,-0.238 -0.0542,-0.4416 -0.0542,-0.6105 0,-0.1076 0.0137,-0.2765 0.0408,-0.5069 0.0271,-0.2304 0.0405,-0.3994 0.0405,-0.5069 0,-0.5376 -0.2891,-0.8065 -0.8671,-0.8065 -0.3794,0 -0.7135,0.7219 -1.0027,2.1659 -0.2709,1.2443 -0.4064,2.189 -0.4064,2.8342 0,1.659 0.3975,2.4885 1.1923,2.4885 0.1986,0 0.4607,-0.3071 0.7858,-0.9216 0.4336,-0.7989 0.6504,-1.4056 0.6504,-1.8204zm6.1242 1.3134c0,0.5224 -0.1265,1.0139 -0.3794,1.4747 -0.3251,0.5224 -0.7858,0.7834 -1.382,0.7834 -0.5419,0 -1.0116,-0.1919 -1.4091,-0.576 -0.2891,-0.2458 -0.4336,-0.4915 -0.4336,-0.7373 0,-0.292 0.0724,-0.4533 0.2168,-0.4839 0.1266,0 0.1897,0.1228 0.1897,0.3686 0.3071,0.5837 0.6414,0.8756 1.0027,0.8756 0.831,0 1.2465,-0.5991 1.2465,-1.7972 0,-0.5224 -0.1807,-1.3289 -0.542,-2.4194 -0.1986,-0.5531 -0.3883,-1.0369 -0.569,-1.4517 -0.0724,0.215 -0.1671,0.4877 -0.2845,0.8179 -0.1175,0.3304 -0.2486,0.7183 -0.393,1.1637 -0.1807,0.5224 -0.4154,0.7834 -0.7046,0.7834 -0.036,0 -0.1084,-0.0154 -0.2167,-0.046 0.7406,-2.381 1.111,-4.0785 1.111,-5.0923 0,-0.4148 0.2349,-0.6221 0.7045,-0.6221 0.5239,0 0.7859,0.1458 0.7859,0.4378 0,0.046 -0.0135,0.1228 -0.0406,0.2304 -0.027,0.1076 -0.0588,0.2228 -0.0949,0.3456 -0.0361,0.1228 -0.0676,0.2419 -0.0947,0.3571 -0.0271,0.1152 -0.0408,0.2113 -0.0408,0.2881 0,0.5836 0.2168,1.4823 0.6504,2.6959 0.4517,1.1675 0.6774,2.0353 0.6774,2.6037z"/>
  <path class="fil3" d="M40.5317 71.1125c-0.0536,3.7845 0.779,1.9986 0.938,3.535 -1.5805,-0.2788 -1.0595,-1.5831 -3.3162,-1.5109 -0.6876,0.9813 -0.1525,1.1643 -0.3159,2.205 -1.4667,0.0094 -3.1325,-2.0877 -0.9573,-3.0689 0.8588,-0.3874 1.2344,-0.2088 1.1515,-1.0966 -1.0003,-0.0223 -1.4032,0.1877 -2.2804,0.4792l-1.3002 0.1395c-0.1949,-0.2568 -0.3248,-0.2828 -0.5936,-0.4792 -0.5969,-0.4357 -0.0203,-0.2824 -0.9643,-0.3784l0.039 0.9053 0.6853 0.293c0.3682,0.1407 0.5626,0.1018 0.9256,0.233 -0.0028,0.5243 -0.2435,0.6778 -0.197,1.2856 0.0221,0.2875 0.6366,1.4511 -0.6975,1.2031 -0.5359,-0.0994 -0.3177,-0.1757 -1.1067,-0.2069 -0.3442,0.411 -1.0488,0.6356 -1.022,1.3176 0.3053,0.1355 -0.1971,0.0182 0.4024,0.1224 0.4856,0.0846 1.0374,0.0658 1.4843,-0.0721 1.5179,-0.4676 0.4673,-1.0375 3.4978,-0.0771 2.3438,0.7424 1.8043,0.5641 2.3018,-0.7616 1.0362,0.0033 1.6823,0.365 2.5789,0.5686l2.5339 0.582c3.0458,0.3522 3.8298,-1.0245 4.9358,-1.2263 0.4245,0.301 0.4187,0.1618 0.6196,0.6428 0.2436,0.3128 0.1255,0.2082 0.7875,0.1977 0.104,-1.0281 -0.7737,-1.366 -0.4085,-2.2503 0.2584,-0.6262 0.6396,-0.4389 0.7257,-2.2519 0.0522,-1.0956 -0.524,-2.6917 -1.7901,-3.3648 -1.667,-0.8862 -3.8656,0.2857 -3.7711,3.036 0.0727,2.124 2.7867,3.1091 2.8448,3.42 -0.1349,0.5425 -1.3441,0.9029 -2.2013,0.9961 -0.0174,-1.1872 0.1235,-1.8387 -1.903,-1.657 -0.1447,0.6161 0.2421,1.5388 -1.0464,1.0607 -0.6056,-0.2247 -0.9521,-0.7321 -1.2755,-1.2201 -0.4039,-0.6094 -1.1492,-3.6573 0.4872,-3.1947 0.3368,0.5881 -0.0806,1.3076 0.9157,1.4826 2.1458,0.3773 1.4233,-2.7058 1.2619,-3.1116 -0.0004,-0.0013 -1.3099,-1.9788 0.4008,-1.7253 0.8196,0.1215 0.0816,0.4642 2.0811,0.3542 0.2616,-0.4365 0.4766,-0.8464 0.3225,-1.4625 -0.6628,0.0428 -0.4106,0.1772 -1.0754,0.4066 -0.8212,-0.2383 -0.4768,-0.5917 -1.5814,-0.5577 -0.617,0.019 -0.4809,0.1271 -1.0958,0.0436 -0.0437,-0.0058 -0.0808,-0.0186 -0.1223,-0.0265l-0.3462 -0.093c-0.3035,-0.0526 -0.2402,-0.0427 -0.6061,-0.0476 -0.7136,0.3656 -0.119,0.3788 -1.2288,1.1123l-0.463 0.4316c-0.0247,0.0279 -0.1022,0.1087 -0.1249,0.1367 -0.1624,0.2001 -0.3981,0.3439 -0.0355,0.5783 0.8045,0.6098 0.8516,-0.7193 2.272,-0.0319 0.7482,0.3622 1.0188,1.0807 0.9664,1.7003 -0.7404,-0.0652 -1.644,-0.6178 -2.4305,0.0624 -0.3174,0.2745 -0.8403,1.0552 -0.9026,1.3417zm8.626 1.7846c0.2879,-0.4867 0.5254,-1.0334 0.5254,-1.6047 0,-1.2797 -1.427,-2.8965 -2.5129,-1.53 -0.8969,1.1287 -0.2967,2.2351 0.7768,2.9616 0.1826,0.1235 1.0315,0.442 1.2107,0.1731z"/>
  <path class="fil3" d="M154.744 71.0621c0.0536,3.8455 -0.7787,2.0307 -0.9378,3.5922 1.5803,-0.2836 1.0593,-1.6089 3.316,-1.5352 0.6876,0.9967 0.1525,1.1828 0.3159,2.2403 1.4667,0.0098 3.1325,-2.1214 0.9573,-3.1184 -0.8588,-0.3938 -1.2344,-0.2123 -1.1515,-1.1145 1.0003,-0.0224 1.4032,0.1907 2.2804,0.4873l1.3002 0.1415c0.1949,-0.261 0.3248,-0.2873 0.5936,-0.4867 0.5969,-0.443 0.0203,-0.2872 0.9643,-0.3846l-0.0387 0.9198 -0.6856 0.2977c-0.3682,0.143 -0.5626,0.1035 -0.9256,0.2369 0.0028,0.5327 0.2437,0.6887 0.197,1.3062 -0.0221,0.2923 -0.6366,1.4747 0.6975,1.2227 0.5359,-0.1011 0.3177,-0.1783 1.107,-0.2103 0.3441,0.4177 1.0485,0.6459 1.0217,1.339 -0.3053,0.1377 0.1971,0.0186 -0.4024,0.1244 -0.4856,0.0858 -1.0374,0.0667 -1.4843,-0.0733 -1.5179,-0.4753 -0.4673,-1.0544 -3.4978,-0.0786 -2.3438,0.7548 -1.8042,0.5734 -2.3018,-0.7738 -1.0362,0.0035 -1.6823,0.3711 -2.5789,0.5779l-2.5339 0.5914c-3.0458,0.3578 -3.8298,-1.041 -4.9358,-1.2462 -0.4245,0.3058 -0.4187,0.1645 -0.6195,0.6533 -0.2437,0.3178 -0.1256,0.2116 -0.7876,0.201 -0.104,-1.0448 0.7739,-1.3883 0.4088,-2.2869 -0.2585,-0.6362 -0.6399,-0.4458 -0.726,-2.2881 -0.0519,-1.1137 0.524,-2.7354 1.7901,-3.4195 1.667,-0.9006 3.8656,0.2904 3.7714,3.0852 -0.073,2.1584 -2.787,3.1595 -2.845,3.4752 0.1348,0.5514 1.344,0.9175 2.2012,1.0124 0.0174,-1.2063 -0.1234,-1.8682 1.903,-1.684 0.1447,0.6261 -0.2421,1.5638 1.0464,1.0779 0.6056,-0.2284 0.9521,-0.7437 1.2755,-1.2396 0.4039,-0.6195 1.1492,-3.7166 -0.4872,-3.2464 -0.3366,0.5974 0.0809,1.3285 -0.9155,1.5064 -2.146,0.3834 -1.4235,-2.7495 -1.2621,-3.162 0.0005,-0.0014 1.3099,-2.0107 -0.4008,-1.753 -0.8196,0.1233 -0.0815,0.4717 -2.0811,0.3598 -0.2615,-0.4437 -0.4766,-0.8599 -0.3225,-1.4861 0.6629,0.0433 0.4106,0.18 1.0754,0.4131 0.8212,-0.2421 0.4768,-0.6013 1.5816,-0.5666 0.6168,0.0193 0.4807,0.1289 1.0956,0.0442 0.0437,-0.006 0.0808,-0.0189 0.1223,-0.0268l0.3462 -0.0945c0.3035,-0.0536 0.2402,-0.0435 0.6061,-0.0485 0.7136,0.3716 0.119,0.385 1.229,1.13l0.4628 0.4386c0.025,0.0288 0.1022,0.1108 0.1249,0.1392 0.1624,0.2034 0.3981,0.3495 0.0355,0.5876 -0.8045,0.6199 -0.8516,-0.731 -2.272,-0.0323 -0.7482,0.3679 -1.0187,1.0981 -0.9664,1.7278 0.7404,-0.0665 1.6442,-0.6276 2.4305,0.0634 0.3174,0.2789 0.8403,1.0724 0.9026,1.3635zm-8.43 1.9201c-0.2879,-0.5356 -0.5254,-1.1374 -0.5254,-1.7662 0,-1.4085 1.4269,-3.1881 2.5129,-1.684 0.8968,1.2422 0.2967,2.4601 -0.7768,3.2597 -0.1826,0.1359 -1.0315,0.4865 -1.2107,0.1905z"/>
  <path class="fil0 str0" d="M73.9096 53.4043c-0.1808,0.2459 -0.5331,0.3687 -1.0569,0.3687 -0.8311,0 -1.915,-0.3763 -3.2518,-1.129 -1.373,-0.768 -2.457,-1.3671 -3.2518,-1.7973 -0.7948,-0.4302 -1.3097,-0.6989 -1.5446,-0.8065 -0.1986,0.3533 -0.3928,0.649 -0.5825,0.887 -0.1897,0.2383 -0.357,0.4188 -0.5014,0.5416 -0.849,0.6913 -2.0413,1.0369 -3.577,1.0369 -1.3368,0 -2.6104,-0.4763 -3.8209,-1.4286 -1.1741,-0.9678 -1.7613,-2.0201 -1.7613,-3.1567 0,-0.1537 0.0497,-0.315 0.1489,-0.4839 0.0994,-0.1689 0.2215,-0.3188 0.3659,-0.4494 0.1445,-0.1305 0.3118,-0.2381 0.5015,-0.3226 0.1896,-0.0844 0.3838,-0.1267 0.5825,-0.1267 1.2825,0 2.7459,0.2459 4.3899,0.7374 0.3794,0.1228 0.8671,0.2919 1.4633,0.5069 0.5962,0.215 1.3007,0.4915 2.1137,0.8295 0.2891,-0.9677 0.4335,-2.3579 0.4335,-4.1706 -0.1084,0 -0.262,0.0114 -0.4606,0.0345 -0.1987,0.023 -0.3975,0.0501 -0.5962,0.0807 -0.1986,0.0307 -0.3975,0.0575 -0.5962,0.0806 -0.1986,0.023 -0.3522,0.0346 -0.4606,0.0346 -0.7769,0 -1.1653,-0.1152 -1.1653,-0.3456 0,-0.1228 0.0995,-0.2689 0.2981,-0.4378 0.1987,0.1228 0.4968,0.1843 0.8943,0.1843 0.8671,0 1.6077,-0.1306 2.222,-0.3917 0.4878,-2.4885 0.7859,-3.9171 0.8943,-4.2858 0.7227,-2.4424 1.5627,-3.6637 2.5201,-3.6637 0.8311,0 1.7343,0.6989 2.7098,2.0969 0.4518,0.6451 0.6865,0.9908 0.7046,1.0369 0.1807,0.3225 0.271,0.6988 0.271,1.129 0,0.3993 -0.3162,0.891 -0.9485,1.4747 -0.4335,0.4148 -0.9484,0.791 -1.5446,1.1291 -0.3612,0.1997 -0.8129,0.4185 -1.3549,0.6566 -0.5419,0.2382 -1.1742,0.4878 -1.8969,0.7489 -0.036,0.3994 -0.1265,1.0407 -0.2709,1.9239 -0.1445,0.8834 -0.3613,2.0163 -0.6504,3.3988 0.6322,0.338 1.2736,0.6913 1.924,1.0599 0.6503,0.3687 1.3097,0.7604 1.9782,1.1752 0.5961,0.3687 1.102,0.6682 1.5175,0.8986 0.4154,0.2304 0.7406,0.3994 0.9755,0.5069 0.7769,0.3381 1.5717,0.4839 2.3847,0.4378zm-3.5499 -13.9173c0,-0.5069 -0.1355,-1.0369 -0.4065,-1.5899 -0.3612,-0.6758 -0.7859,-1.0139 -1.2736,-1.0139 -0.9395,0 -1.7704,2.1045 -2.4931,6.3135 1.3008,-0.3993 2.2582,-0.8295 2.8725,-1.2903 0.8671,-0.6145 1.3007,-1.421 1.3007,-2.4194zm-6.4765 9.9772c-2.5291,-1.4901 -4.8146,-2.2351 -6.8559,-2.2351 -0.8671,0 -1.3007,0.2458 -1.3007,0.7373 0,0.6913 0.4878,1.4747 1.4633,2.3503 1.1021,1.0139 2.3394,1.5208 3.7125,1.5208 0.3975,0 0.7769,-0.0615 1.1381,-0.1843 0.3612,-0.1229 0.6774,-0.2882 0.9484,-0.4955 0.271,-0.2074 0.4878,-0.4569 0.6504,-0.7488 0.1626,-0.2919 0.2439,-0.6067 0.2439,-0.9447zm16.828 -4.1937c0,0.6759 -0.2349,1.4747 -0.7045,2.3964 -0.4155,0.8141 -0.9666,1.2212 -1.653,1.2212 -0.0903,0 -0.4065,-0.0922 -0.9485,-0.2765 -0.036,0.1689 -0.0813,0.3611 -0.1355,0.5761 -0.0542,0.215 -0.1173,0.4532 -0.1896,0.7143 -0.1445,0.3532 -0.2755,0.6528 -0.3929,0.8986 -0.1175,0.2458 -0.2214,0.4302 -0.3117,0.553 -0.3612,0.4915 -0.804,0.7374 -1.3278,0.7374 -1.3189,0 -1.9782,-1.1445 -1.9782,-3.4333 0,-1.4593 0.1445,-2.4425 0.4336,-2.9494 0,0.0461 0,0.0615 0,0.0461 0,-0.0307 -0.009,-0.0998 -0.0271,-0.2074 -0.0182,-0.1076 -0.0271,-0.1919 -0.0271,-0.2534 0,-0.0768 0,-0.1307 0,-0.1613 0.0181,-0.1383 0.0723,-0.2459 0.1626,-0.3226 0.036,-0.0768 0.0723,-0.192 0.1084,-0.3456 0.036,-0.1537 0.0902,-0.3611 0.1626,-0.6222 0.1265,-0.5223 0.4335,-0.7834 0.9213,-0.7834 0.4696,0 0.9574,0.1689 1.4633,0.5069 0.5238,0.338 0.8582,0.6837 1.0026,1.0369 0.1445,0.3687 0.2168,1.4823 0.2168,3.3411 0.2529,0.1689 0.4788,0.2535 0.6775,0.2535 0.6322,0 1.1021,-0.2996 1.4091,-0.8987 0.1444,-0.2304 0.3341,-0.8371 0.5691,-1.8203 0.0723,-0.2765 0.1807,-0.4148 0.3251,-0.4148 0.1626,0 0.2439,0.0692 0.2439,0.2074zm-4.0918 3.4102c0,-0.1689 -0.0182,-0.3763 -0.0542,-0.6221 -0.0361,-0.2458 -0.0903,-0.53 -0.1626,-0.8525 -0.0723,-0.3226 -0.1265,-0.6029 -0.1626,-0.8412 -0.0361,-0.238 -0.0542,-0.4416 -0.0542,-0.6105 0,-0.1076 0.0137,-0.2765 0.0408,-0.5069 0.0271,-0.2304 0.0405,-0.3994 0.0405,-0.5069 0,-0.5376 -0.2891,-0.8065 -0.8671,-0.8065 -0.3794,0 -0.7136,0.7219 -1.0027,2.1659 -0.271,1.2443 -0.4065,2.189 -0.4065,2.8342 0,1.659 0.3976,2.4885 1.1924,2.4885 0.1986,0 0.4606,-0.3071 0.7858,-0.9216 0.4336,-0.7989 0.6504,-1.4056 0.6504,-1.8204zm6.1242 1.3134c0,0.5224 -0.1265,1.0139 -0.3794,1.4747 -0.3252,0.5224 -0.7858,0.7834 -1.382,0.7834 -0.542,0 -1.0116,-0.1919 -1.4091,-0.576 -0.2891,-0.2458 -0.4336,-0.4915 -0.4336,-0.7373 0,-0.292 0.0724,-0.4533 0.2168,-0.4839 0.1265,0 0.1897,0.1228 0.1897,0.3686 0.307,0.5837 0.6414,0.8756 1.0026,0.8756 0.8311,0 1.2466,-0.5991 1.2466,-1.7972 0,-0.5224 -0.1808,-1.3289 -0.542,-2.4194 -0.1987,-0.5531 -0.3883,-1.0369 -0.5691,-1.4517 -0.0723,0.215 -0.167,0.4877 -0.2844,0.8179 -0.1176,0.3304 -0.2486,0.7183 -0.393,1.1637 -0.1808,0.5224 -0.4155,0.7834 -0.7046,0.7834 -0.036,0 -0.1084,-0.0154 -0.2168,-0.046 0.7406,-2.381 1.1111,-4.0785 1.1111,-5.0923 0,-0.4148 0.2349,-0.6221 0.7045,-0.6221 0.5238,0 0.7859,0.1458 0.7859,0.4378 0,0.046 -0.0135,0.1228 -0.0406,0.2304 -0.0271,0.1076 -0.0589,0.2228 -0.0949,0.3456 -0.0361,0.1228 -0.0677,0.2419 -0.0948,0.3571 -0.0271,0.1152 -0.0407,0.2113 -0.0407,0.2881 0,0.5836 0.2168,1.4823 0.6503,2.6959 0.4517,1.1675 0.6775,2.0353 0.6775,2.6037zm26.3937 -12.4426c-0.0181,0.2458 -0.2078,0.3686 -0.569,0.3686 -2.4389,0 -4.959,0.0922 -7.5604,0.2765 -0.1266,0.553 -0.3705,2.0584 -0.7317,4.5163 -0.2349,1.5514 -0.4199,2.9339 -0.5554,4.1475 -0.1355,1.2136 -0.2304,2.2812 -0.2846,3.2029 -0.0361,0.6145 0.0271,1.3518 0.1896,2.212 -0.0902,-0.0154 -0.1986,-0.0423 -0.3251,-0.0806 -0.1266,-0.0384 -0.2621,-0.0883 -0.4065,-0.1498 -0.3613,-0.3533 -0.542,-0.9448 -0.542,-1.7743 0,-1.2288 0.1355,-3.0645 0.4065,-5.507 0.1445,-1.2288 0.2528,-2.2966 0.3252,-3.2028 0.0723,-0.9063 0.1084,-1.6667 0.1084,-2.2812 0,-0.1689 -0.0045,-0.3226 -0.0135,-0.4608 -0.0091,-0.1383 -0.0226,-0.2689 -0.0407,-0.3917 -0.4878,-0.0461 -1.4181,-0.0231 -2.7912,0.0691 -4.0647,0.2611 -6.0971,0.7219 -6.0971,1.3825 0,0.4915 0.813,0.7373 2.4389,0.7373 1.8066,0 3.5138,-0.2073 5.1216,-0.6221 -0.3252,0.4609 -0.7046,0.7374 -1.1382,0.8295 -1.6982,0.3533 -3.1344,0.53 -4.3086,0.53 -0.9213,0 -1.6078,-0.1076 -2.0595,-0.3226 -0.5601,-0.2919 -0.84,-0.7988 -0.84,-1.5208 0,-0.6758 0.4606,-1.1214 1.382,-1.3364l3.3602 -0.3687c0.7769,-0.0767 1.82,-0.1537 3.1299,-0.2304 1.3097,-0.0767 2.8949,-0.1537 4.7557,-0.2304 1.4994,-0.0615 2.773,-0.1038 3.8208,-0.1268 1.0479,-0.0231 1.8788,-0.0345 2.4931,-0.0345 0.5059,0 0.7498,0.1228 0.7316,0.3687zm-1.4633 7.8803c-0.0723,-0.7067 -0.298,-1.0599 -0.6774,-1.0599 -0.3071,0 -0.578,0.3687 -0.813,1.106 -0.0723,0.1689 -0.1536,0.3917 -0.2439,0.6682 -0.0902,0.2765 -0.1986,0.5915 -0.3251,0.9447 -0.2892,0.9371 -0.4336,2.0969 -0.4336,3.4794 0,0.2611 0.0632,0.5069 0.1897,0.7373 0.1626,0.292 0.3704,0.4378 0.6232,0.4378 0.3434,-0.1689 0.7046,-0.7604 1.084,-1.7742 0.1444,-0.3993 0.271,-0.772 0.3794,-1.1176 0.1083,-0.3457 0.1807,-0.6566 0.2167,-0.9331l0.3252 -2.1199 -0.3252 -0.3687zm1.653 6.4518c-0.6685,0 -1.2194,-0.5607 -1.653,-1.6821 -0.4696,1.4286 -1.0749,2.1429 -1.8155,2.1429 -1.0658,0 -1.5717,-1.1214 -1.5176,-3.3641 0.0361,-0.5991 0.2621,-1.5975 0.6775,-2.9955 0.5238,-1.5975 0.9666,-2.3963 1.3278,-2.3963 0.7948,0 1.3007,0.1767 1.5175,0.5299l0.4878 0.8295 0.9484 0.2765c-0.4517,1.1215 -0.7587,2.4962 -0.9213,4.1246 -0.0361,0.3532 0,0.7219 0.1084,1.106 0.1444,0.5376 0.3704,0.8064 0.6774,0.8064 0.6143,0 1.4544,-1.8894 2.5202,-5.6683 0.1084,-0.3532 0.2349,-0.53 0.3794,-0.53 0.1444,0 0.2168,0.1153 0.2168,0.3457 0,0.5684 -0.3342,1.7281 -1.0027,3.4793 -0.7587,1.997 -1.4091,2.9955 -1.9511,2.9955zm10.6226 -6.4748c0,0.4302 -0.3162,1.4747 -0.9485,3.1337 -0.8671,2.2274 -1.5627,3.3411 -2.0865,3.3411 -0.6685,0 -1.1292,-0.5454 -1.3821,-1.636 -0.0723,-0.3072 -0.1354,-0.7872 -0.1896,-1.4402 -0.0542,-0.6528 -0.1084,-1.4938 -0.1626,-2.523 -0.0903,0.2765 -0.2574,0.7872 -0.5012,1.5322 -0.2439,0.7451 -0.5467,1.7397 -0.9079,2.984 -0.1808,0.6606 -0.4607,0.9908 -0.8401,0.9908 -0.5601,0 -0.9032,-0.3226 -1.0297,-0.9678l-0.1084 -1.7281c-0.0542,-0.6758 -0.0542,-1.2904 0,-1.8434l0.0813 -0.8525 -0.2439 -0.4378c0.0181,-0.4148 0.0632,-0.6913 0.1355,-0.8295 0.1084,-0.2459 0.3341,-0.3687 0.6774,-0.3687 0.3613,0 0.542,0.1383 0.542,0.4148 0,0.0921 -0.0632,0.2919 -0.1897,0.599 -0.1084,0.3072 -0.1626,0.5531 -0.1626,0.7374 0,0.1382 0,0.315 0,0.53 0,0.1997 -0.0089,0.4378 -0.0271,0.7143 -0.0181,0.2765 -0.0271,0.5223 -0.0271,0.7373 0,0.1998 0,0.3687 0,0.5069 0,1.106 0.1445,1.659 0.4336,1.659 0.0903,0 0.2078,-0.1997 0.3523,-0.599 0.2528,-0.8911 0.4425,-1.4747 0.569,-1.7512 0.2529,-0.6913 0.4607,-1.3288 0.6233,-1.9125 0.1626,-0.5837 0.262,-1.1367 0.2981,-1.659 0.0542,-0.6452 0.1807,-1.0293 0.3794,-1.1521 0.9213,0.046 1.382,0.2919 1.382,0.7373 0,-0.338 -0.0271,-0.3993 -0.0813,-0.1843 -0.0542,0.215 -0.1265,0.7143 -0.2168,1.4977 -0.0903,0.768 -0.1581,1.3939 -0.2031,1.8778 -0.0453,0.4839 -0.0679,0.8335 -0.0679,1.0485 0,1.6591 0.2529,2.4886 0.7588,2.4886 0.4335,0 0.9574,-0.8141 1.5717,-2.4425 0.1807,-0.4762 0.3478,-0.9485 0.5014,-1.4172 0.1534,-0.4684 0.2934,-0.9407 0.4199,-1.417 0.1265,-0.4762 0.271,-0.7143 0.4336,-0.7143 0.1444,0 0.2168,0.1153 0.2168,0.3457zm1.3549 -6.2674c0,0.5684 -0.2258,0.8525 -0.6775,0.8525 -0.2891,0 -0.5419,-0.0998 -0.7587,-0.2995 -0.2168,-0.1998 -0.3252,-0.4224 -0.3252,-0.6683 0,-0.1536 0.0949,-0.3149 0.2846,-0.4838 0.1897,-0.1689 0.3747,-0.2535 0.5554,-0.2535 0.6143,0 0.9214,0.2841 0.9214,0.8526zm2.222 6.2443c0,0.3841 -0.3162,1.4517 -0.9484,3.2029 -0.4696,1.2597 -0.7677,2.0122 -0.8942,2.2581 -0.3613,0.6758 -0.7948,1.0138 -1.3008,1.0138 -0.5601,0 -0.9755,-0.2765 -1.2465,-0.8295 -0.1986,-0.4608 -0.2981,-0.9447 -0.2981,-1.4516 0,-0.2765 0.0182,-0.6222 0.0542,-1.0369 0.0361,-0.4148 0.0903,-0.9063 0.1626,-1.4747 0.0724,-0.5684 0.1266,-1.0637 0.1626,-1.4863 0.0361,-0.4224 0.0542,-0.7718 0.0542,-1.0483 0.1265,-0.1076 0.3071,-0.1613 0.542,-0.1613 0.4696,0 0.7045,0.1076 0.7045,0.3226 -0.036,0.1228 -0.0857,0.2957 -0.1489,0.5183 -0.0634,0.2228 -0.1402,0.5031 -0.2304,0.8412 -0.3434,1.3979 -0.5149,2.5883 -0.5149,3.5715 0,1.0292 0.271,1.5438 0.8129,1.5438 0.2529,0 0.5601,-0.3841 0.9214,-1.1521 0.0181,-0.0154 0.3162,-0.7989 0.8942,-2.3503 0.0903,-0.2458 0.1897,-0.5376 0.2981,-0.8756 0.1084,-0.338 0.2258,-0.7297 0.3523,-1.1751 0.1084,-0.3687 0.2349,-0.5531 0.3794,-0.5531 0.1626,0 0.2438,0.1076 0.2438,0.3226zm7.6689 0.0231c0,0.4302 -0.3162,1.4747 -0.9485,3.1337 -0.8671,2.2274 -1.5627,3.3411 -2.0865,3.3411 -0.6685,0 -1.1292,-0.5454 -1.3821,-1.636 -0.0723,-0.3072 -0.1354,-0.7872 -0.1896,-1.4402 -0.0542,-0.6528 -0.1084,-1.4938 -0.1626,-2.523 -0.0903,0.2765 -0.2574,0.7872 -0.5012,1.5322 -0.2439,0.7451 -0.5467,1.7397 -0.9079,2.984 -0.1808,0.6606 -0.4607,0.9908 -0.8401,0.9908 -0.5601,0 -0.9032,-0.3226 -1.0297,-0.9678l-0.1084 -1.7281c-0.0542,-0.6758 -0.0542,-1.2904 0,-1.8434l0.0813 -0.8525 -0.2439 -0.4378c0.0181,-0.4148 0.0631,-0.6913 0.1355,-0.8295 0.1084,-0.2459 0.3341,-0.3687 0.6774,-0.3687 0.3613,0 0.542,0.1383 0.542,0.4148 0,0.0921 -0.0632,0.2919 -0.1897,0.599 -0.1084,0.3072 -0.1626,0.5531 -0.1626,0.7374 0,0.1382 0,0.315 0,0.53 0,0.1997 -0.0089,0.4378 -0.0271,0.7143 -0.0181,0.2765 -0.0271,0.5223 -0.0271,0.7373 0,0.1998 0,0.3687 0,0.5069 0,1.106 0.1445,1.659 0.4336,1.659 0.0903,0 0.2078,-0.1997 0.3523,-0.599 0.2528,-0.8911 0.4425,-1.4747 0.569,-1.7512 0.2529,-0.6913 0.4607,-1.3288 0.6233,-1.9125 0.1626,-0.5837 0.262,-1.1367 0.2981,-1.659 0.0542,-0.6452 0.1807,-1.0293 0.3794,-1.1521 0.9213,0.046 1.382,0.2919 1.382,0.7373 0,-0.338 -0.0271,-0.3993 -0.0813,-0.1843 -0.0542,0.215 -0.1265,0.7143 -0.2168,1.4977 -0.0903,0.768 -0.1581,1.3939 -0.2031,1.8778 -0.0453,0.4839 -0.0679,0.8335 -0.0679,1.0485 0,1.6591 0.2529,2.4886 0.7588,2.4886 0.4335,0 0.9574,-0.8141 1.5717,-2.4425 0.1807,-0.4762 0.3478,-0.9485 0.5014,-1.4172 0.1534,-0.4684 0.2934,-0.9407 0.4199,-1.417 0.1265,-0.4762 0.271,-0.7143 0.4336,-0.7143 0.1444,0 0.2168,0.1153 0.2168,0.3457zm6.6933 -0.1383c0,0.6759 -0.235,1.4747 -0.7046,2.3964 -0.4154,0.8141 -0.9666,1.2212 -1.653,1.2212 -0.0903,0 -0.4065,-0.0922 -0.9484,-0.2765 -0.0361,0.1689 -0.0813,0.3611 -0.1355,0.5761 -0.0542,0.215 -0.1174,0.4532 -0.1897,0.7143 -0.1445,0.3532 -0.2755,0.6528 -0.3928,0.8986 -0.1176,0.2458 -0.2215,0.4302 -0.3118,0.553 -0.3612,0.4915 -0.804,0.7374 -1.3278,0.7374 -1.3189,0 -1.9782,-1.1445 -1.9782,-3.4333 0,-1.4593 0.1445,-2.4425 0.4336,-2.9494 0,0.0461 0,0.0615 0,0.0461 0,-0.0307 -0.009,-0.0998 -0.0271,-0.2074 -0.0181,-0.1076 -0.0271,-0.1919 -0.0271,-0.2534 0,-0.0768 0,-0.1307 0,-0.1613 0.0181,-0.1383 0.0723,-0.2459 0.1626,-0.3226 0.0361,-0.0768 0.0723,-0.192 0.1084,-0.3456 0.036,-0.1537 0.0902,-0.3611 0.1626,-0.6222 0.1265,-0.5223 0.4336,-0.7834 0.9213,-0.7834 0.4697,0 0.9574,0.1689 1.4633,0.5069 0.5239,0.338 0.8582,0.6837 1.0027,1.0369 0.1444,0.3687 0.2168,1.4823 0.2168,3.3411 0.2528,0.1689 0.4788,0.2535 0.6774,0.2535 0.6322,0 1.1021,-0.2996 1.4091,-0.8987 0.1445,-0.2304 0.3342,-0.8371 0.5691,-1.8203 0.0723,-0.2765 0.1807,-0.4148 0.3252,-0.4148 0.1626,0 0.2439,0.0692 0.2439,0.2074zm-4.0919 3.4102c0,-0.1689 -0.0181,-0.3763 -0.0542,-0.6221 -0.036,-0.2458 -0.0902,-0.53 -0.1626,-0.8525 -0.0723,-0.3226 -0.1265,-0.6029 -0.1626,-0.8412 -0.036,-0.238 -0.0542,-0.4416 -0.0542,-0.6105 0,-0.1076 0.0137,-0.2765 0.0408,-0.5069 0.0271,-0.2304 0.0405,-0.3994 0.0405,-0.5069 0,-0.5376 -0.2891,-0.8065 -0.8671,-0.8065 -0.3794,0 -0.7135,0.7219 -1.0027,2.1659 -0.2709,1.2443 -0.4064,2.189 -0.4064,2.8342 0,1.659 0.3975,2.4885 1.1923,2.4885 0.1986,0 0.4607,-0.3071 0.7858,-0.9216 0.4336,-0.7989 0.6504,-1.4056 0.6504,-1.8204zm6.1242 1.3134c0,0.5224 -0.1265,1.0139 -0.3794,1.4747 -0.3251,0.5224 -0.7858,0.7834 -1.382,0.7834 -0.5419,0 -1.0116,-0.1919 -1.4091,-0.576 -0.2891,-0.2458 -0.4336,-0.4915 -0.4336,-0.7373 0,-0.292 0.0724,-0.4533 0.2168,-0.4839 0.1266,0 0.1897,0.1228 0.1897,0.3686 0.3071,0.5837 0.6414,0.8756 1.0027,0.8756 0.831,0 1.2465,-0.5991 1.2465,-1.7972 0,-0.5224 -0.1807,-1.3289 -0.542,-2.4194 -0.1986,-0.5531 -0.3883,-1.0369 -0.569,-1.4517 -0.0724,0.215 -0.1671,0.4877 -0.2845,0.8179 -0.1175,0.3304 -0.2486,0.7183 -0.393,1.1637 -0.1807,0.5224 -0.4154,0.7834 -0.7046,0.7834 -0.036,0 -0.1084,-0.0154 -0.2167,-0.046 0.7406,-2.381 1.111,-4.0785 1.111,-5.0923 0,-0.4148 0.2349,-0.6221 0.7045,-0.6221 0.5239,0 0.7859,0.1458 0.7859,0.4378 0,0.046 -0.0135,0.1228 -0.0406,0.2304 -0.027,0.1076 -0.0588,0.2228 -0.0949,0.3456 -0.0361,0.1228 -0.0676,0.2419 -0.0947,0.3571 -0.0271,0.1152 -0.0408,0.2113 -0.0408,0.2881 0,0.5836 0.2168,1.4823 0.6504,2.6959 0.4517,1.1675 0.6774,2.0353 0.6774,2.6037z"/>
  <path class="fil1" d="M40.0428 47.9782c-0.0536,3.7845 0.779,1.9986 0.938,3.535 -1.5805,-0.2788 -1.0595,-1.5831 -3.3162,-1.5109 -0.6876,0.9813 -0.1525,1.1643 -0.3159,2.205 -1.4667,0.0094 -3.1325,-2.0877 -0.9573,-3.0689 0.8588,-0.3874 1.2344,-0.2088 1.1515,-1.0966 -1.0003,-0.0223 -1.4032,0.1877 -2.2804,0.4792l-1.3002 0.1395c-0.1949,-0.2568 -0.3248,-0.2828 -0.5936,-0.4792 -0.5969,-0.4357 -0.0203,-0.2824 -0.9643,-0.3784l0.039 0.9053 0.6853 0.293c0.3682,0.1407 0.5626,0.1018 0.9256,0.233 -0.0028,0.5243 -0.2435,0.6778 -0.197,1.2856 0.0221,0.2875 0.6366,1.4511 -0.6975,1.2031 -0.5359,-0.0994 -0.3177,-0.1757 -1.1067,-0.2069 -0.3442,0.411 -1.0488,0.6356 -1.022,1.3176 0.3053,0.1355 -0.1971,0.0182 0.4024,0.1224 0.4856,0.0846 1.0374,0.0658 1.4843,-0.0721 1.5179,-0.4676 0.4673,-1.0375 3.4978,-0.0771 2.3438,0.7424 1.8043,0.5641 2.3018,-0.7616 1.0362,0.0033 1.6823,0.365 2.5789,0.5686l2.5339 0.582c3.0458,0.3522 3.8298,-1.0245 4.9358,-1.2263 0.4245,0.301 0.4187,0.1618 0.6196,0.6428 0.2436,0.3128 0.1255,0.2082 0.7875,0.1977 0.104,-1.0281 -0.7737,-1.366 -0.4085,-2.2503 0.2584,-0.6262 0.6396,-0.4389 0.7257,-2.2519 0.0522,-1.0956 -0.524,-2.6917 -1.7901,-3.3648 -1.667,-0.8862 -3.8656,0.2857 -3.7711,3.036 0.0727,2.124 2.7867,3.1091 2.8448,3.42 -0.1349,0.5425 -1.3441,0.9029 -2.2013,0.9961 -0.0174,-1.1872 0.1235,-1.8387 -1.903,-1.657 -0.1447,0.6161 0.2421,1.5388 -1.0464,1.0607 -0.6056,-0.2247 -0.9521,-0.7321 -1.2755,-1.2201 -0.4039,-0.6094 -1.1492,-3.6573 0.4872,-3.1947 0.3368,0.5881 -0.0806,1.3076 0.9157,1.4826 2.1458,0.3773 1.4233,-2.7058 1.2619,-3.1116 -0.0004,-0.0013 -1.3099,-1.9788 0.4008,-1.7253 0.8196,0.1215 0.0816,0.4642 2.0811,0.3542 0.2616,-0.4365 0.4766,-0.8464 0.3225,-1.4625 -0.6628,0.0428 -0.4106,0.1772 -1.0754,0.4066 -0.8212,-0.2383 -0.4768,-0.5917 -1.5814,-0.5577 -0.617,0.019 -0.4809,0.1271 -1.0958,0.0436 -0.0437,-0.0058 -0.0808,-0.0186 -0.1223,-0.0265l-0.3462 -0.093c-0.3035,-0.0526 -0.2402,-0.0427 -0.6061,-0.0476 -0.7136,0.3656 -0.119,0.3788 -1.2288,1.1123l-0.463 0.4316c-0.0247,0.0279 -0.1022,0.1087 -0.1249,0.1367 -0.1624,0.2001 -0.3981,0.3439 -0.0355,0.5783 0.8045,0.6098 0.8516,-0.7193 2.272,-0.0319 0.7482,0.3622 1.0188,1.0807 0.9664,1.7003 -0.7404,-0.0652 -1.644,-0.6178 -2.4305,0.0624 -0.3174,0.2745 -0.8403,1.0552 -0.9026,1.3417zm8.626 1.7846c0.2879,-0.4867 0.5254,-1.0334 0.5254,-1.6047 0,-1.2797 -1.427,-2.8965 -2.5129,-1.53 -0.8969,1.1287 -0.2967,2.2351 0.7768,2.9616 0.1826,0.1235 1.0315,0.442 1.2107,0.1731z"/>
  <path class="fil1" d="M154.255 47.9278c0.0536,3.8455 -0.7787,2.0307 -0.9378,3.5922 1.5803,-0.2836 1.0593,-1.6089 3.316,-1.5352 0.6876,0.9967 0.1525,1.1828 0.3159,2.2403 1.4667,0.0098 3.1325,-2.1214 0.9573,-3.1184 -0.8588,-0.3938 -1.2344,-0.2123 -1.1515,-1.1145 1.0003,-0.0224 1.4032,0.1907 2.2804,0.4873l1.3002 0.1415c0.1949,-0.261 0.3248,-0.2873 0.5936,-0.4867 0.5969,-0.443 0.0203,-0.2872 0.9643,-0.3846l-0.0387 0.9198 -0.6856 0.2977c-0.3682,0.143 -0.5626,0.1035 -0.9256,0.2369 0.0028,0.5327 0.2437,0.6887 0.197,1.3062 -0.0221,0.2923 -0.6366,1.4747 0.6975,1.2227 0.5359,-0.1011 0.3177,-0.1783 1.107,-0.2103 0.3441,0.4177 1.0485,0.6459 1.0217,1.339 -0.3053,0.1377 0.1971,0.0186 -0.4024,0.1244 -0.4856,0.0858 -1.0374,0.0667 -1.4843,-0.0733 -1.5179,-0.4753 -0.4673,-1.0544 -3.4978,-0.0786 -2.3438,0.7548 -1.8042,0.5734 -2.3018,-0.7738 -1.0362,0.0035 -1.6823,0.3711 -2.5789,0.5779l-2.5339 0.5914c-3.0458,0.3578 -3.8298,-1.041 -4.9358,-1.2462 -0.4245,0.3058 -0.4187,0.1645 -0.6195,0.6533 -0.2437,0.3178 -0.1256,0.2116 -0.7876,0.201 -0.104,-1.0448 0.7739,-1.3883 0.4088,-2.2869 -0.2585,-0.6362 -0.6399,-0.4458 -0.726,-2.2881 -0.0519,-1.1137 0.524,-2.7354 1.7901,-3.4195 1.667,-0.9006 3.8656,0.2904 3.7714,3.0852 -0.073,2.1584 -2.787,3.1595 -2.845,3.4752 0.1348,0.5514 1.344,0.9175 2.2012,1.0124 0.0174,-1.2063 -0.1234,-1.8682 1.903,-1.684 0.1447,0.6261 -0.2421,1.5638 1.0464,1.0779 0.6056,-0.2284 0.9521,-0.7437 1.2755,-1.2396 0.4039,-0.6195 1.1492,-3.7166 -0.4872,-3.2464 -0.3366,0.5974 0.0809,1.3285 -0.9155,1.5064 -2.146,0.3834 -1.4235,-2.7495 -1.2621,-3.162 0.0005,-0.0014 1.3099,-2.0107 -0.4008,-1.753 -0.8196,0.1233 -0.0815,0.4717 -2.0811,0.3598 -0.2615,-0.4437 -0.4766,-0.8599 -0.3225,-1.4861 0.6629,0.0433 0.4106,0.18 1.0754,0.4131 0.8212,-0.2421 0.4768,-0.6013 1.5816,-0.5666 0.6168,0.0193 0.4807,0.1289 1.0956,0.0442 0.0437,-0.006 0.0808,-0.0189 0.1223,-0.0268l0.3462 -0.0945c0.3035,-0.0536 0.2402,-0.0435 0.6061,-0.0485 0.7136,0.3716 0.119,0.385 1.229,1.13l0.4628 0.4386c0.025,0.0288 0.1022,0.1108 0.1249,0.1392 0.1624,0.2034 0.3981,0.3495 0.0355,0.5876 -0.8045,0.6199 -0.8516,-0.731 -2.272,-0.0323 -0.7482,0.3679 -1.0187,1.0981 -0.9664,1.7278 0.7404,-0.0665 1.6442,-0.6276 2.4305,0.0634 0.3174,0.2789 0.8403,1.0724 0.9026,1.3635zm-8.43 1.9201c-0.2879,-0.5356 -0.5254,-1.1374 -0.5254,-1.7662 0,-1.4085 1.4269,-3.1881 2.5129,-1.684 0.8968,1.2422 0.2967,2.4601 -0.7768,3.2597 -0.1826,0.1359 -1.0315,0.4865 -1.2107,0.1905z"/>
  <path class="fil4 str2" d="M73.0056 30.2481c-0.1808,0.2459 -0.5331,0.3687 -1.0569,0.3687 -0.8311,0 -1.915,-0.3763 -3.2518,-1.129 -1.373,-0.768 -2.457,-1.3671 -3.2518,-1.7973 -0.7948,-0.4302 -1.3097,-0.6989 -1.5446,-0.8065 -0.1986,0.3533 -0.3928,0.649 -0.5825,0.887 -0.1897,0.2383 -0.357,0.4188 -0.5014,0.5416 -0.849,0.6913 -2.0413,1.0369 -3.577,1.0369 -1.3368,0 -2.6104,-0.4763 -3.8209,-1.4286 -1.1741,-0.9678 -1.7613,-2.0201 -1.7613,-3.1567 0,-0.1537 0.0497,-0.315 0.1489,-0.4839 0.0994,-0.1689 0.2215,-0.3188 0.3659,-0.4494 0.1445,-0.1305 0.3118,-0.2381 0.5015,-0.3226 0.1896,-0.0844 0.3838,-0.1267 0.5825,-0.1267 1.2825,0 2.7459,0.2459 4.3899,0.7374 0.3794,0.1228 0.8671,0.2919 1.4633,0.5069 0.5962,0.215 1.3007,0.4915 2.1137,0.8295 0.2891,-0.9677 0.4335,-2.3579 0.4335,-4.1706 -0.1084,0 -0.262,0.0114 -0.4606,0.0345 -0.1987,0.023 -0.3975,0.0501 -0.5962,0.0807 -0.1986,0.0307 -0.3975,0.0575 -0.5962,0.0806 -0.1986,0.023 -0.3522,0.0346 -0.4606,0.0346 -0.7769,0 -1.1653,-0.1152 -1.1653,-0.3456 0,-0.1228 0.0995,-0.2689 0.2981,-0.4378 0.1987,0.1228 0.4968,0.1843 0.8943,0.1843 0.8671,0 1.6077,-0.1306 2.222,-0.3917 0.4878,-2.4885 0.7859,-3.9171 0.8943,-4.2858 0.7227,-2.4424 1.5627,-3.6637 2.5201,-3.6637 0.8311,0 1.7343,0.6989 2.7098,2.0969 0.4518,0.6451 0.6865,0.9908 0.7046,1.0369 0.1807,0.3225 0.271,0.6988 0.271,1.129 0,0.3993 -0.3162,0.891 -0.9485,1.4747 -0.4335,0.4148 -0.9484,0.791 -1.5446,1.1291 -0.3612,0.1997 -0.8129,0.4185 -1.3549,0.6566 -0.5419,0.2382 -1.1742,0.4878 -1.8969,0.7489 -0.036,0.3994 -0.1265,1.0407 -0.2709,1.9239 -0.1445,0.8834 -0.3613,2.0163 -0.6504,3.3988 0.6322,0.338 1.2736,0.6913 1.924,1.0599 0.6503,0.3687 1.3097,0.7604 1.9782,1.1752 0.5961,0.3687 1.102,0.6682 1.5175,0.8986 0.4154,0.2304 0.7406,0.3994 0.9755,0.5069 0.7769,0.3381 1.5717,0.4839 2.3847,0.4378zm-3.5499 -13.9173c0,-0.5069 -0.1355,-1.0369 -0.4065,-1.5899 -0.3612,-0.6758 -0.7859,-1.0139 -1.2736,-1.0139 -0.9395,0 -1.7704,2.1045 -2.4931,6.3135 1.3008,-0.3993 2.2582,-0.8295 2.8725,-1.2903 0.8671,-0.6145 1.3007,-1.421 1.3007,-2.4194zm-6.4765 9.9772c-2.5291,-1.4901 -4.8146,-2.2351 -6.8559,-2.2351 -0.8671,0 -1.3007,0.2458 -1.3007,0.7373 0,0.6913 0.4878,1.4747 1.4633,2.3503 1.1021,1.0139 2.3394,1.5208 3.7125,1.5208 0.3975,0 0.7769,-0.0615 1.1381,-0.1843 0.3612,-0.1229 0.6774,-0.2882 0.9484,-0.4955 0.271,-0.2074 0.4878,-0.4569 0.6504,-0.7488 0.1626,-0.2919 0.2439,-0.6067 0.2439,-0.9447zm16.828 -4.1937c0,0.6759 -0.2349,1.4747 -0.7045,2.3964 -0.4155,0.8141 -0.9666,1.2212 -1.653,1.2212 -0.0903,0 -0.4065,-0.0922 -0.9485,-0.2765 -0.036,0.1689 -0.0813,0.3611 -0.1355,0.5761 -0.0542,0.215 -0.1173,0.4532 -0.1896,0.7143 -0.1445,0.3532 -0.2755,0.6528 -0.3929,0.8986 -0.1175,0.2458 -0.2214,0.4302 -0.3117,0.553 -0.3612,0.4915 -0.804,0.7374 -1.3278,0.7374 -1.3189,0 -1.9782,-1.1445 -1.9782,-3.4333 0,-1.4593 0.1445,-2.4425 0.4336,-2.9494 0,0.0461 0,0.0615 0,0.0461 0,-0.0307 -0.009,-0.0998 -0.0271,-0.2074 -0.0182,-0.1076 -0.0271,-0.1919 -0.0271,-0.2534 0,-0.0768 0,-0.1307 0,-0.1613 0.0181,-0.1383 0.0723,-0.2459 0.1626,-0.3226 0.036,-0.0768 0.0723,-0.192 0.1084,-0.3456 0.036,-0.1537 0.0902,-0.3611 0.1626,-0.6222 0.1265,-0.5223 0.4335,-0.7834 0.9213,-0.7834 0.4696,0 0.9574,0.1689 1.4633,0.5069 0.5238,0.338 0.8582,0.6837 1.0026,1.0369 0.1445,0.3687 0.2168,1.4823 0.2168,3.3411 0.2529,0.1689 0.4788,0.2535 0.6775,0.2535 0.6322,0 1.1021,-0.2996 1.4091,-0.8987 0.1444,-0.2304 0.3341,-0.8371 0.5691,-1.8203 0.0723,-0.2765 0.1807,-0.4148 0.3251,-0.4148 0.1626,0 0.2439,0.0692 0.2439,0.2074zm-4.0918 3.4102c0,-0.1689 -0.0182,-0.3763 -0.0542,-0.6221 -0.0361,-0.2458 -0.0903,-0.53 -0.1626,-0.8525 -0.0723,-0.3226 -0.1265,-0.6029 -0.1626,-0.8412 -0.0361,-0.238 -0.0542,-0.4416 -0.0542,-0.6105 0,-0.1076 0.0137,-0.2765 0.0408,-0.5069 0.0271,-0.2304 0.0405,-0.3994 0.0405,-0.5069 0,-0.5376 -0.2891,-0.8065 -0.8671,-0.8065 -0.3794,0 -0.7136,0.7219 -1.0027,2.1659 -0.271,1.2443 -0.4065,2.189 -0.4065,2.8342 0,1.659 0.3976,2.4885 1.1924,2.4885 0.1986,0 0.4606,-0.3071 0.7858,-0.9216 0.4336,-0.7989 0.6504,-1.4056 0.6504,-1.8204zm6.1242 1.3134c0,0.5224 -0.1265,1.0139 -0.3794,1.4747 -0.3252,0.5224 -0.7858,0.7834 -1.382,0.7834 -0.542,0 -1.0116,-0.1919 -1.4091,-0.576 -0.2891,-0.2458 -0.4336,-0.4915 -0.4336,-0.7373 0,-0.292 0.0724,-0.4533 0.2168,-0.4839 0.1265,0 0.1897,0.1228 0.1897,0.3686 0.307,0.5837 0.6414,0.8756 1.0026,0.8756 0.8311,0 1.2466,-0.5991 1.2466,-1.7972 0,-0.5224 -0.1808,-1.3289 -0.542,-2.4194 -0.1987,-0.5531 -0.3883,-1.0369 -0.5691,-1.4517 -0.0723,0.215 -0.167,0.4877 -0.2844,0.8179 -0.1176,0.3304 -0.2486,0.7183 -0.393,1.1637 -0.1808,0.5224 -0.4155,0.7834 -0.7046,0.7834 -0.036,0 -0.1084,-0.0154 -0.2168,-0.046 0.7406,-2.381 1.1111,-4.0785 1.1111,-5.0923 0,-0.4148 0.2349,-0.6221 0.7045,-0.6221 0.5238,0 0.7859,0.1458 0.7859,0.4378 0,0.046 -0.0135,0.1228 -0.0406,0.2304 -0.0271,0.1076 -0.0589,0.2228 -0.0949,0.3456 -0.0361,0.1228 -0.0677,0.2419 -0.0948,0.3571 -0.0271,0.1152 -0.0407,0.2113 -0.0407,0.2881 0,0.5836 0.2168,1.4823 0.6503,2.6959 0.4517,1.1675 0.6775,2.0353 0.6775,2.6037zm26.3937 -12.4426c-0.0181,0.2458 -0.2078,0.3686 -0.569,0.3686 -2.4389,0 -4.959,0.0922 -7.5604,0.2765 -0.1266,0.553 -0.3705,2.0584 -0.7317,4.5163 -0.2349,1.5514 -0.4199,2.9339 -0.5554,4.1475 -0.1355,1.2136 -0.2304,2.2812 -0.2846,3.2029 -0.0361,0.6145 0.0271,1.3518 0.1896,2.212 -0.0902,-0.0154 -0.1986,-0.0423 -0.3251,-0.0806 -0.1266,-0.0384 -0.2621,-0.0883 -0.4065,-0.1498 -0.3613,-0.3533 -0.542,-0.9448 -0.542,-1.7743 0,-1.2288 0.1355,-3.0645 0.4065,-5.507 0.1445,-1.2288 0.2528,-2.2966 0.3252,-3.2028 0.0723,-0.9063 0.1084,-1.6667 0.1084,-2.2812 0,-0.1689 -0.0045,-0.3226 -0.0135,-0.4608 -0.0091,-0.1383 -0.0226,-0.2689 -0.0407,-0.3917 -0.4878,-0.0461 -1.4181,-0.0231 -2.7912,0.0691 -4.0647,0.2611 -6.0971,0.7219 -6.0971,1.3825 0,0.4915 0.813,0.7373 2.4389,0.7373 1.8066,0 3.5138,-0.2073 5.1216,-0.6221 -0.3252,0.4609 -0.7046,0.7374 -1.1382,0.8295 -1.6982,0.3533 -3.1344,0.53 -4.3086,0.53 -0.9213,0 -1.6078,-0.1076 -2.0595,-0.3226 -0.5601,-0.2919 -0.84,-0.7988 -0.84,-1.5208 0,-0.6758 0.4606,-1.1214 1.382,-1.3364l3.3602 -0.3687c0.7769,-0.0767 1.82,-0.1537 3.1299,-0.2304 1.3097,-0.0767 2.8949,-0.1537 4.7557,-0.2304 1.4994,-0.0615 2.773,-0.1038 3.8208,-0.1268 1.0479,-0.0231 1.8788,-0.0345 2.4931,-0.0345 0.5059,0 0.7498,0.1228 0.7316,0.3687zm-1.4633 7.8803c-0.0723,-0.7067 -0.298,-1.0599 -0.6774,-1.0599 -0.3071,0 -0.578,0.3687 -0.813,1.106 -0.0723,0.1689 -0.1536,0.3917 -0.2439,0.6682 -0.0902,0.2765 -0.1986,0.5915 -0.3251,0.9447 -0.2892,0.9371 -0.4336,2.0969 -0.4336,3.4794 0,0.2611 0.0632,0.5069 0.1897,0.7373 0.1626,0.292 0.3704,0.4378 0.6232,0.4378 0.3434,-0.1689 0.7046,-0.7604 1.084,-1.7742 0.1444,-0.3993 0.271,-0.772 0.3794,-1.1176 0.1083,-0.3457 0.1807,-0.6566 0.2167,-0.9331l0.3252 -2.1199 -0.3252 -0.3687zm1.653 6.4518c-0.6685,0 -1.2194,-0.5607 -1.653,-1.6821 -0.4696,1.4286 -1.0749,2.1429 -1.8155,2.1429 -1.0658,0 -1.5717,-1.1214 -1.5176,-3.3641 0.0361,-0.5991 0.2621,-1.5975 0.6775,-2.9955 0.5238,-1.5975 0.9666,-2.3963 1.3278,-2.3963 0.7948,0 1.3007,0.1767 1.5175,0.5299l0.4878 0.8295 0.9484 0.2765c-0.4517,1.1215 -0.7587,2.4962 -0.9213,4.1246 -0.0361,0.3532 0,0.7219 0.1084,1.106 0.1444,0.5376 0.3704,0.8064 0.6774,0.8064 0.6143,0 1.4544,-1.8894 2.5202,-5.6683 0.1084,-0.3532 0.2349,-0.53 0.3794,-0.53 0.1444,0 0.2168,0.1153 0.2168,0.3457 0,0.5684 -0.3342,1.7281 -1.0027,3.4793 -0.7587,1.997 -1.4091,2.9955 -1.9511,2.9955zm10.6226 -6.4748c0,0.4302 -0.3162,1.4747 -0.9485,3.1337 -0.8671,2.2274 -1.5627,3.3411 -2.0865,3.3411 -0.6685,0 -1.1292,-0.5454 -1.3821,-1.636 -0.0723,-0.3072 -0.1354,-0.7872 -0.1896,-1.4402 -0.0542,-0.6528 -0.1084,-1.4938 -0.1626,-2.523 -0.0903,0.2765 -0.2574,0.7872 -0.5012,1.5322 -0.2439,0.7451 -0.5467,1.7397 -0.9079,2.984 -0.1808,0.6606 -0.4607,0.9908 -0.8401,0.9908 -0.5601,0 -0.9032,-0.3226 -1.0297,-0.9678l-0.1084 -1.7281c-0.0542,-0.6758 -0.0542,-1.2904 0,-1.8434l0.0813 -0.8525 -0.2439 -0.4378c0.0181,-0.4148 0.0632,-0.6913 0.1355,-0.8295 0.1084,-0.2459 0.3341,-0.3687 0.6774,-0.3687 0.3613,0 0.542,0.1383 0.542,0.4148 0,0.0921 -0.0632,0.2919 -0.1897,0.599 -0.1084,0.3072 -0.1626,0.5531 -0.1626,0.7374 0,0.1382 0,0.315 0,0.53 0,0.1997 -0.0089,0.4378 -0.0271,0.7143 -0.0181,0.2765 -0.0271,0.5223 -0.0271,0.7373 0,0.1998 0,0.3687 0,0.5069 0,1.106 0.1445,1.659 0.4336,1.659 0.0903,0 0.2078,-0.1997 0.3523,-0.599 0.2528,-0.8911 0.4425,-1.4747 0.569,-1.7512 0.2529,-0.6913 0.4607,-1.3288 0.6233,-1.9125 0.1626,-0.5837 0.262,-1.1367 0.2981,-1.659 0.0542,-0.6452 0.1807,-1.0293 0.3794,-1.1521 0.9213,0.046 1.382,0.2919 1.382,0.7373 0,-0.338 -0.0271,-0.3993 -0.0813,-0.1843 -0.0542,0.215 -0.1265,0.7143 -0.2168,1.4977 -0.0903,0.768 -0.1581,1.3939 -0.2031,1.8778 -0.0453,0.4839 -0.0679,0.8335 -0.0679,1.0485 0,1.6591 0.2529,2.4886 0.7588,2.4886 0.4335,0 0.9574,-0.8141 1.5717,-2.4425 0.1807,-0.4762 0.3478,-0.9485 0.5014,-1.4172 0.1534,-0.4684 0.2934,-0.9407 0.4199,-1.417 0.1265,-0.4762 0.271,-0.7143 0.4336,-0.7143 0.1444,0 0.2168,0.1153 0.2168,0.3457zm1.3549 -6.2674c0,0.5684 -0.2258,0.8525 -0.6775,0.8525 -0.2891,0 -0.5419,-0.0998 -0.7587,-0.2995 -0.2168,-0.1998 -0.3252,-0.4224 -0.3252,-0.6683 0,-0.1536 0.0949,-0.3149 0.2846,-0.4838 0.1897,-0.1689 0.3747,-0.2535 0.5554,-0.2535 0.6143,0 0.9214,0.2841 0.9214,0.8526zm2.222 6.2443c0,0.3841 -0.3162,1.4517 -0.9484,3.2029 -0.4696,1.2597 -0.7677,2.0122 -0.8942,2.2581 -0.3613,0.6758 -0.7948,1.0138 -1.3008,1.0138 -0.5601,0 -0.9755,-0.2765 -1.2465,-0.8295 -0.1986,-0.4608 -0.2981,-0.9447 -0.2981,-1.4516 0,-0.2765 0.0182,-0.6222 0.0542,-1.0369 0.0361,-0.4148 0.0903,-0.9063 0.1626,-1.4747 0.0724,-0.5684 0.1266,-1.0637 0.1626,-1.4863 0.0361,-0.4224 0.0542,-0.7718 0.0542,-1.0483 0.1265,-0.1076 0.3071,-0.1613 0.542,-0.1613 0.4696,0 0.7045,0.1076 0.7045,0.3226 -0.036,0.1228 -0.0857,0.2957 -0.1489,0.5183 -0.0634,0.2228 -0.1402,0.5031 -0.2304,0.8412 -0.3434,1.3979 -0.5149,2.5883 -0.5149,3.5715 0,1.0292 0.271,1.5438 0.8129,1.5438 0.2529,0 0.5601,-0.3841 0.9214,-1.1521 0.0181,-0.0154 0.3162,-0.7989 0.8942,-2.3503 0.0903,-0.2458 0.1897,-0.5376 0.2981,-0.8756 0.1084,-0.338 0.2258,-0.7297 0.3523,-1.1751 0.1084,-0.3687 0.2349,-0.5531 0.3794,-0.5531 0.1626,0 0.2438,0.1076 0.2438,0.3226zm7.6689 0.0231c0,0.4302 -0.3162,1.4747 -0.9485,3.1337 -0.8671,2.2274 -1.5627,3.3411 -2.0865,3.3411 -0.6685,0 -1.1292,-0.5454 -1.3821,-1.636 -0.0723,-0.3072 -0.1354,-0.7872 -0.1896,-1.4402 -0.0542,-0.6528 -0.1084,-1.4938 -0.1626,-2.523 -0.0903,0.2765 -0.2574,0.7872 -0.5012,1.5322 -0.2439,0.7451 -0.5467,1.7397 -0.9079,2.984 -0.1808,0.6606 -0.4607,0.9908 -0.8401,0.9908 -0.5601,0 -0.9032,-0.3226 -1.0297,-0.9678l-0.1084 -1.7281c-0.0542,-0.6758 -0.0542,-1.2904 0,-1.8434l0.0813 -0.8525 -0.2439 -0.4378c0.0181,-0.4148 0.0631,-0.6913 0.1355,-0.8295 0.1084,-0.2459 0.3341,-0.3687 0.6774,-0.3687 0.3613,0 0.542,0.1383 0.542,0.4148 0,0.0921 -0.0632,0.2919 -0.1897,0.599 -0.1084,0.3072 -0.1626,0.5531 -0.1626,0.7374 0,0.1382 0,0.315 0,0.53 0,0.1997 -0.0089,0.4378 -0.0271,0.7143 -0.0181,0.2765 -0.0271,0.5223 -0.0271,0.7373 0,0.1998 0,0.3687 0,0.5069 0,1.106 0.1445,1.659 0.4336,1.659 0.0903,0 0.2078,-0.1997 0.3523,-0.599 0.2528,-0.8911 0.4425,-1.4747 0.569,-1.7512 0.2529,-0.6913 0.4607,-1.3288 0.6233,-1.9125 0.1626,-0.5837 0.262,-1.1367 0.2981,-1.659 0.0542,-0.6452 0.1807,-1.0293 0.3794,-1.1521 0.9213,0.046 1.382,0.2919 1.382,0.7373 0,-0.338 -0.0271,-0.3993 -0.0813,-0.1843 -0.0542,0.215 -0.1265,0.7143 -0.2168,1.4977 -0.0903,0.768 -0.1581,1.3939 -0.2031,1.8778 -0.0453,0.4839 -0.0679,0.8335 -0.0679,1.0485 0,1.6591 0.2529,2.4886 0.7588,2.4886 0.4335,0 0.9574,-0.8141 1.5717,-2.4425 0.1807,-0.4762 0.3478,-0.9485 0.5014,-1.4172 0.1534,-0.4684 0.2934,-0.9407 0.4199,-1.417 0.1265,-0.4762 0.271,-0.7143 0.4336,-0.7143 0.1444,0 0.2168,0.1153 0.2168,0.3457zm6.6933 -0.1383c0,0.6759 -0.235,1.4747 -0.7046,2.3964 -0.4154,0.8141 -0.9666,1.2212 -1.653,1.2212 -0.0903,0 -0.4065,-0.0922 -0.9484,-0.2765 -0.0361,0.1689 -0.0813,0.3611 -0.1355,0.5761 -0.0542,0.215 -0.1174,0.4532 -0.1897,0.7143 -0.1445,0.3532 -0.2755,0.6528 -0.3928,0.8986 -0.1176,0.2458 -0.2215,0.4302 -0.3118,0.553 -0.3612,0.4915 -0.804,0.7374 -1.3278,0.7374 -1.3189,0 -1.9782,-1.1445 -1.9782,-3.4333 0,-1.4593 0.1445,-2.4425 0.4336,-2.9494 0,0.0461 0,0.0615 0,0.0461 0,-0.0307 -0.009,-0.0998 -0.0271,-0.2074 -0.0181,-0.1076 -0.0271,-0.1919 -0.0271,-0.2534 0,-0.0768 0,-0.1307 0,-0.1613 0.0181,-0.1383 0.0723,-0.2459 0.1626,-0.3226 0.0361,-0.0768 0.0723,-0.192 0.1084,-0.3456 0.036,-0.1537 0.0902,-0.3611 0.1626,-0.6222 0.1265,-0.5223 0.4336,-0.7834 0.9213,-0.7834 0.4697,0 0.9574,0.1689 1.4633,0.5069 0.5239,0.338 0.8582,0.6837 1.0027,1.0369 0.1444,0.3687 0.2168,1.4823 0.2168,3.3411 0.2528,0.1689 0.4788,0.2535 0.6774,0.2535 0.6322,0 1.1021,-0.2996 1.4091,-0.8987 0.1445,-0.2304 0.3342,-0.8371 0.5691,-1.8203 0.0723,-0.2765 0.1807,-0.4148 0.3252,-0.4148 0.1626,0 0.2439,0.0692 0.2439,0.2074zm-4.0919 3.4102c0,-0.1689 -0.0181,-0.3763 -0.0542,-0.6221 -0.036,-0.2458 -0.0902,-0.53 -0.1626,-0.8525 -0.0723,-0.3226 -0.1265,-0.6029 -0.1626,-0.8412 -0.036,-0.238 -0.0542,-0.4416 -0.0542,-0.6105 0,-0.1076 0.0137,-0.2765 0.0408,-0.5069 0.0271,-0.2304 0.0405,-0.3994 0.0405,-0.5069 0,-0.5376 -0.2891,-0.8065 -0.8671,-0.8065 -0.3794,0 -0.7135,0.7219 -1.0027,2.1659 -0.2709,1.2443 -0.4064,2.189 -0.4064,2.8342 0,1.659 0.3975,2.4885 1.1923,2.4885 0.1986,0 0.4607,-0.3071 0.7858,-0.9216 0.4336,-0.7989 0.6504,-1.4056 0.6504,-1.8204zm6.1242 1.3134c0,0.5224 -0.1265,1.0139 -0.3794,1.4747 -0.3251,0.5224 -0.7858,0.7834 -1.382,0.7834 -0.5419,0 -1.0116,-0.1919 -1.4091,-0.576 -0.2891,-0.2458 -0.4336,-0.4915 -0.4336,-0.7373 0,-0.292 0.0724,-0.4533 0.2168,-0.4839 0.1266,0 0.1897,0.1228 0.1897,0.3686 0.3071,0.5837 0.6414,0.8756 1.0027,0.8756 0.831,0 1.2465,-0.5991 1.2465,-1.7972 0,-0.5224 -0.1807,-1.3289 -0.542,-2.4194 -0.1986,-0.5531 -0.3883,-1.0369 -0.569,-1.4517 -0.0724,0.215 -0.1671,0.4877 -0.2845,0.8179 -0.1175,0.3304 -0.2486,0.7183 -0.393,1.1637 -0.1807,0.5224 -0.4154,0.7834 -0.7046,0.7834 -0.036,0 -0.1084,-0.0154 -0.2167,-0.046 0.7406,-2.381 1.111,-4.0785 1.111,-5.0923 0,-0.4148 0.2349,-0.6221 0.7045,-0.6221 0.5239,0 0.7859,0.1458 0.7859,0.4378 0,0.046 -0.0135,0.1228 -0.0406,0.2304 -0.027,0.1076 -0.0588,0.2228 -0.0949,0.3456 -0.0361,0.1228 -0.0676,0.2419 -0.0947,0.3571 -0.0271,0.1152 -0.0408,0.2113 -0.0408,0.2881 0,0.5836 0.2168,1.4823 0.6504,2.6959 0.4517,1.1675 0.6774,2.0353 0.6774,2.6037z"/>
  <path class="fil5" d="M39.1388 24.822c-0.0536,3.7845 0.779,1.9986 0.938,3.535 -1.5805,-0.2788 -1.0595,-1.5831 -3.3162,-1.5109 -0.6876,0.9813 -0.1525,1.1643 -0.3159,2.205 -1.4667,0.0094 -3.1325,-2.0877 -0.9573,-3.0689 0.8588,-0.3874 1.2344,-0.2088 1.1515,-1.0966 -1.0003,-0.0223 -1.4032,0.1877 -2.2804,0.4792l-1.3002 0.1395c-0.1949,-0.2568 -0.3248,-0.2828 -0.5936,-0.4792 -0.5969,-0.4357 -0.0203,-0.2824 -0.9643,-0.3784l0.039 0.9053 0.6853 0.293c0.3682,0.1407 0.5626,0.1018 0.9256,0.233 -0.0028,0.5243 -0.2435,0.6778 -0.197,1.2856 0.0221,0.2875 0.6366,1.4511 -0.6975,1.2031 -0.5359,-0.0994 -0.3177,-0.1757 -1.1067,-0.2069 -0.3442,0.411 -1.0488,0.6356 -1.022,1.3176 0.3053,0.1355 -0.1971,0.0182 0.4024,0.1224 0.4856,0.0846 1.0374,0.0658 1.4843,-0.0721 1.5179,-0.4676 0.4673,-1.0375 3.4978,-0.0771 2.3438,0.7424 1.8043,0.5641 2.3018,-0.7616 1.0362,0.0033 1.6823,0.365 2.5789,0.5686l2.5339 0.582c3.0458,0.3522 3.8298,-1.0245 4.9358,-1.2263 0.4245,0.301 0.4187,0.1618 0.6196,0.6428 0.2436,0.3128 0.1255,0.2082 0.7875,0.1977 0.104,-1.0281 -0.7737,-1.366 -0.4085,-2.2503 0.2584,-0.6262 0.6396,-0.4389 0.7257,-2.2519 0.0522,-1.0956 -0.524,-2.6917 -1.7901,-3.3648 -1.667,-0.8862 -3.8656,0.2857 -3.7711,3.036 0.0727,2.124 2.7867,3.1091 2.8448,3.42 -0.1349,0.5425 -1.3441,0.9029 -2.2013,0.9961 -0.0174,-1.1872 0.1235,-1.8387 -1.903,-1.657 -0.1447,0.6161 0.2421,1.5388 -1.0464,1.0607 -0.6056,-0.2247 -0.9521,-0.7321 -1.2755,-1.2201 -0.4039,-0.6094 -1.1492,-3.6573 0.4872,-3.1947 0.3368,0.5881 -0.0806,1.3076 0.9157,1.4826 2.1458,0.3773 1.4233,-2.7058 1.2619,-3.1116 -0.0004,-0.0013 -1.3099,-1.9788 0.4008,-1.7253 0.8196,0.1215 0.0816,0.4642 2.0811,0.3542 0.2616,-0.4365 0.4766,-0.8464 0.3225,-1.4625 -0.6628,0.0428 -0.4106,0.1772 -1.0754,0.4066 -0.8212,-0.2383 -0.4768,-0.5917 -1.5814,-0.5577 -0.617,0.019 -0.4809,0.1271 -1.0958,0.0436 -0.0437,-0.0058 -0.0808,-0.0186 -0.1223,-0.0265l-0.3462 -0.093c-0.3035,-0.0526 -0.2402,-0.0427 -0.6061,-0.0476 -0.7136,0.3656 -0.119,0.3788 -1.2288,1.1123l-0.463 0.4316c-0.0247,0.0279 -0.1022,0.1087 -0.1249,0.1367 -0.1624,0.2001 -0.3981,0.3439 -0.0355,0.5783 0.8045,0.6098 0.8516,-0.7193 2.272,-0.0319 0.7482,0.3622 1.0188,1.0807 0.9664,1.7003 -0.7404,-0.0652 -1.644,-0.6178 -2.4305,0.0624 -0.3174,0.2745 -0.8403,1.0552 -0.9026,1.3417zm8.626 1.7846c0.2879,-0.4867 0.5254,-1.0334 0.5254,-1.6047 0,-1.2797 -1.427,-2.8965 -2.5129,-1.53 -0.8969,1.1287 -0.2967,2.2351 0.7768,2.9616 0.1826,0.1235 1.0315,0.442 1.2107,0.1731z"/>
  <path class="fil5" d="M153.351 24.7716c0.0536,3.8455 -0.7787,2.0307 -0.9378,3.5922 1.5803,-0.2836 1.0593,-1.6089 3.316,-1.5352 0.6876,0.9967 0.1525,1.1828 0.3159,2.2403 1.4667,0.0098 3.1325,-2.1214 0.9573,-3.1184 -0.8588,-0.3938 -1.2344,-0.2123 -1.1515,-1.1145 1.0003,-0.0224 1.4032,0.1907 2.2804,0.4873l1.3002 0.1415c0.1949,-0.261 0.3248,-0.2873 0.5936,-0.4867 0.5969,-0.443 0.0203,-0.2872 0.9643,-0.3846l-0.0387 0.9198 -0.6856 0.2977c-0.3682,0.143 -0.5626,0.1035 -0.9256,0.2369 0.0028,0.5327 0.2437,0.6887 0.197,1.3062 -0.0221,0.2923 -0.6366,1.4747 0.6975,1.2227 0.5359,-0.1011 0.3177,-0.1783 1.107,-0.2103 0.3441,0.4177 1.0485,0.6459 1.0217,1.339 -0.3053,0.1377 0.1971,0.0186 -0.4024,0.1244 -0.4856,0.0858 -1.0374,0.0667 -1.4843,-0.0733 -1.5179,-0.4753 -0.4673,-1.0544 -3.4978,-0.0786 -2.3438,0.7548 -1.8042,0.5734 -2.3018,-0.7738 -1.0362,0.0035 -1.6823,0.3711 -2.5789,0.5779l-2.5339 0.5914c-3.0458,0.3578 -3.8298,-1.041 -4.9358,-1.2462 -0.4245,0.3058 -0.4187,0.1645 -0.6195,0.6533 -0.2437,0.3178 -0.1256,0.2116 -0.7876,0.201 -0.104,-1.0448 0.7739,-1.3883 0.4088,-2.2869 -0.2585,-0.6362 -0.6399,-0.4458 -0.726,-2.2881 -0.0519,-1.1137 0.524,-2.7354 1.7901,-3.4195 1.667,-0.9006 3.8656,0.2904 3.7714,3.0852 -0.073,2.1584 -2.787,3.1595 -2.845,3.4752 0.1348,0.5514 1.344,0.9175 2.2012,1.0124 0.0174,-1.2063 -0.1234,-1.8682 1.903,-1.684 0.1447,0.6261 -0.2421,1.5638 1.0464,1.0779 0.6056,-0.2284 0.9521,-0.7437 1.2755,-1.2396 0.4039,-0.6195 1.1492,-3.7166 -0.4872,-3.2464 -0.3366,0.5974 0.0809,1.3285 -0.9155,1.5064 -2.146,0.3834 -1.4235,-2.7495 -1.2621,-3.162 0.0005,-0.0014 1.3099,-2.0107 -0.4008,-1.753 -0.8196,0.1233 -0.0815,0.4717 -2.0811,0.3598 -0.2615,-0.4437 -0.4766,-0.8599 -0.3225,-1.4861 0.6629,0.0433 0.4106,0.18 1.0754,0.4131 0.8212,-0.2421 0.4768,-0.6013 1.5816,-0.5666 0.6168,0.0193 0.4807,0.1289 1.0956,0.0442 0.0437,-0.006 0.0808,-0.0189 0.1223,-0.0268l0.3462 -0.0945c0.3035,-0.0536 0.2402,-0.0435 0.6061,-0.0485 0.7136,0.3716 0.119,0.385 1.229,1.13l0.4628 0.4386c0.025,0.0288 0.1022,0.1108 0.1249,0.1392 0.1624,0.2034 0.3981,0.3495 0.0355,0.5876 -0.8045,0.6199 -0.8516,-0.731 -2.272,-0.0323 -0.7482,0.3679 -1.0187,1.0981 -0.9664,1.7278 0.7404,-0.0665 1.6442,-0.6276 2.4305,0.0634 0.3174,0.2789 0.8403,1.0724 0.9026,1.3635zm-8.43 1.9201c-0.2879,-0.5356 -0.5254,-1.1374 -0.5254,-1.7662 0,-1.4085 1.4269,-3.1881 2.5129,-1.684 0.8968,1.2422 0.2967,2.4601 -0.7768,3.2597 -0.1826,0.1359 -1.0315,0.4865 -1.2107,0.1905z"/>
 </g>
</svg>
